<svg width="129" height="118" viewBox="0 0 129 118" fill="none" xmlns="http://www.w3.org/2000/svg">
<path d="M64.2329 93V67.5L36.2329 48L67.2329 35L84 43L96.7329 48" stroke="white" stroke-width="14" stroke-linecap="round" stroke-linejoin="round"/>
<path d="M27 67.5C39.9787 67.5 50.5 78.0213 50.5 91C50.5 103.979 39.9787 114.5 27 114.5C14.0213 114.5 3.5 103.979 3.5 91C3.5 78.0213 14.0213 67.5 27 67.5Z" stroke="white" stroke-width="7"/>
<circle cx="101.233" cy="91" r="23.5" stroke="white" stroke-width="7"/>
<circle cx="80.5896" cy="18.0363" r="9.5" transform="rotate(-22.4814 80.5896 18.0363)" fill="white" stroke="white"/>
<path d="M68.4338 10.8367C67.5441 16.199 67.6562 19.0849 68.6647 24.0728C79.137 27.5581 84.9086 30.1383 95.047 35.7763C98.0398 32.9652 99.8686 28.496 99.6336 26.9324C99.3986 25.3688 98.0067 24.6187 98.0067 24.6187C95.7316 25.5193 94.6656 25.9932 93.0584 26.8016C89.6366 25.2125 88.0269 24.1666 85.7781 21.98C85.0805 19.3476 85.2341 18.1363 86.7224 16.5617C89.114 14.5492 91.1846 13.8687 95.4621 13.0095L94.4994 9.79646L99.276 8.59877C102.301 7.83884 102.831 7.12876 103.325 5.75167C96.4449 5.28525 92.5393 4.69118 85.5064 3.15379C76.5283 3.04583 72.7101 4.62083 68.4338 10.8367Z" fill="white" stroke="white" stroke-linecap="round" stroke-linejoin="round"/>
<path d="M56 64.5C60.5 60.5 61.6605 58.5561 66.5 59.1473C72.2667 62.859 73.1842 66.655 72 74.1473C67.0411 78.6612 66.0244 73.1733 60.5 72C60.5 72 51.5 68.5 56 64.5Z" fill="white"/>
</svg>
