<?xml version="1.0" encoding="UTF-8" standalone="no"?>
<svg xmlns="http://www.w3.org/2000/svg" xmlns:xlink="http://www.w3.org/1999/xlink" xmlns:serif="http://www.serif.com/" width="100%" height="100%" viewBox="0 0 1084 449" version="1.1" xml:space="preserve" style="fill-rule:evenodd;clip-rule:evenodd;stroke-miterlimit:10;"> <g transform="matrix(1,0,0,1,-1219.41,0)"> <g id="Page-2" serif:id="Page 2" transform="matrix(1,0,0,1,1219.41,0)"> <rect x="0" y="0" width="1083.92" height="448.587" style="fill:none;"/> <g id="Layer-1" serif:id="Layer 1"> </g> <g id="Layer-6" serif:id="Layer 6"> <g transform="matrix(1,0,0,1,397.685,139.64)"> <path d="M0,0.094C-0.002,0.079 -0.002,0.06 -0.003,0.044C-0.027,0 -0.024,0.021 0,0.094" style="fill:rgb(44,74,118);fill-rule:nonzero;"/> </g> <g transform="matrix(1,0,0,1,397.685,139.64)"> <path d="M0,0.094C-0.002,0.079 -0.002,0.06 -0.003,0.044C-0.027,0 -0.024,0.021 0,0.094Z" style="fill:none;fill-rule:nonzero;stroke:rgb(44,74,118);stroke-width:0.01px;"/> </g> <g transform="matrix(1,0,0,1,416.305,294.025)"> <path d="M0,-56.349C0.186,-57.925 0.351,-59.507 0.492,-61.095C0.495,-61.128 0.498,-61.161 0.501,-61.194C0.632,-62.683 0.744,-64.176 0.835,-65.674C0.845,-65.828 0.857,-65.98 0.866,-66.133C0.945,-67.501 1.006,-68.874 1.051,-70.25C1.06,-70.512 1.075,-70.772 1.083,-71.034C1.128,-72.616 1.155,-74.203 1.155,-75.795L1.155,-75.844C1.155,-76.429 1.144,-77.024 1.129,-77.624C1.064,-83.468 0.703,-89.244 0.045,-94.936L-0.353,-97.991C-4.41,-127.178 -18.089,-152.685 -18.62,-154.291C-18.586,-153.971 -18.569,-153.604 -18.609,-153.184C-18.677,-152.45 -18.968,-151.923 -19.027,-151.506C-19.209,-150.207 -20.634,-147.253 -22.955,-144.964C-23.949,-143.983 -24.8,-143.428 -25.379,-143.035C-27.793,-141.393 -29.869,-139.403 -34.021,-135.424C-38.364,-131.261 -39.038,-130.006 -43.956,-123.926C-48.673,-118.093 -53.794,-112.703 -59.612,-108.027L-59.63,-108.055C-60.392,-107.443 -61.158,-106.834 -61.944,-106.247C-62.183,-106.069 -62.415,-105.885 -62.646,-105.699C-62.823,-105.571 -62.992,-105.435 -63.169,-105.308C-64.837,-104.114 -66.348,-102.729 -67.668,-101.144C-68.225,-100.475 -68.362,-99.85 -69.388,-98.232C-70.292,-96.804 -70.631,-96.424 -71.326,-95.319C-71.837,-94.505 -72.55,-93.286 -73.284,-91.691C-73.281,-91.688 -73.279,-91.684 -73.277,-91.681C-73.277,-91.68 -73.277,-91.679 -73.278,-91.679C-72.52,-90.401 -71.303,-88.865 -69.481,-88.421C-67.212,-87.868 -65.417,-89.35 -61.957,-90.892C-60.365,-91.601 -57.181,-92.964 -53.573,-93.438C-52.377,-93.595 -51.22,-93.633 -50.094,-93.602L-50.093,-93.602L-50.102,-93.615C-47.214,-93.537 -44.56,-92.959 -42.163,-92.429C-40.206,-91.997 -38.914,-91.557 -36.349,-91.192C-35.66,-91.094 -34.496,-90.947 -32.913,-90.573C-32.346,-90.439 -31.625,-90.218 -30.182,-89.777C-29.016,-89.42 -28.402,-89.211 -27.715,-88.716C-27.323,-88.434 -27.037,-88.152 -26.849,-87.949C-24.604,-87.21 -23.427,-86.078 -22.827,-85.347C-22.33,-84.741 -21.534,-83.564 -21.747,-83.354C-21.867,-83.235 -22.268,-83.466 -22.404,-83.541C-23.159,-83.954 -24.644,-84.397 -27.855,-84.497C-29.202,-84.462 -30.318,-84.397 -31.138,-84.339C-31.917,-84.284 -32.341,-84.242 -32.87,-84.132C-33.642,-83.971 -35.354,-83.615 -35.426,-82.942C-35.468,-82.557 -34.957,-82.21 -34.194,-81.707C-33.273,-81.098 -32.655,-80.886 -31.733,-80.471C-31.21,-80.236 -29.74,-79.61 -28.586,-78.687C-27.944,-78.173 -27.064,-77.301 -26.32,-75.84C-25.969,-75.447 -25.481,-74.839 -25.029,-74.02C-24.368,-72.821 -23.643,-70.916 -24.079,-70.618C-24.552,-70.295 -25.711,-72.402 -28.313,-72.921C-29.057,-73.07 -29.151,-72.935 -30.485,-73.147C-31.766,-73.35 -32.473,-73.599 -33.51,-73.882C-36.124,-74.596 -37.885,-75.06 -38.162,-74.569C-38.237,-74.435 -38.194,-74.247 -38.094,-74.045C-37.933,-73.71 -37.614,-73.337 -37.428,-73.119C-36.793,-72.378 -36.34,-72.348 -35.575,-71.526C-35.491,-71.435 -35.435,-71.368 -35.343,-71.244L-35.374,-71.291C-35.27,-71.153 -35.118,-70.937 -34.787,-70.476C-33.152,-68.195 -33.231,-68.412 -32.988,-67.98C-32.771,-67.595 -32.601,-67.224 -32.449,-66.858L-32.492,-66.922C-32.258,-66.369 -32.06,-65.828 -31.886,-65.298C-31.883,-65.289 -31.88,-65.28 -31.877,-65.271C-31.708,-64.752 -31.586,-64.311 -31.506,-63.997C-31.383,-63.623 -31.221,-63.076 -31.083,-62.403C-30.782,-60.935 -30.559,-58.671 -31.03,-58.526C-31.433,-58.403 -31.883,-59.967 -33.782,-61.501C-34.207,-61.843 -34.585,-62.089 -34.84,-62.244C-35.71,-62.54 -36.775,-62.988 -37.909,-63.678C-39.275,-64.51 -40.299,-65.424 -41.018,-66.172C-41.437,-66.47 -41.8,-66.706 -42.075,-66.879C-42.586,-67.2 -42.763,-67.282 -42.956,-67.233C-43.318,-67.14 -43.475,-66.647 -43.485,-66.614C-43.568,-66.341 -43.507,-66.082 -43.346,-65.792C-43.08,-65.306 -42.529,-64.733 -41.893,-63.861C-41.509,-63.333 -40.933,-62.541 -40.441,-61.541C-40.147,-60.943 -39.884,-60.271 -39.71,-59.536C-39.603,-59.087 -39.583,-58.84 -39.392,-58.102C-39.074,-56.876 -38.827,-56.394 -38.58,-55.6C-38.181,-54.318 -37.802,-52.285 -38.227,-52.1C-38.533,-51.968 -39.029,-52.885 -40.609,-54.384C-41.236,-54.979 -41.784,-55.428 -42.143,-55.712C-44.994,-56.998 -46.681,-58.515 -47.714,-59.718C-48.493,-60.627 -49.868,-62.486 -52.294,-63.166C-52.56,-63.24 -52.783,-63.285 -52.935,-63.312C-56.97,-62.938 -60.077,-62.057 -62.194,-61.308C-66.105,-59.924 -70.009,-57.493 -75.67,-56.017C-76.891,-55.698 -78.102,-55.449 -79.439,-55.226C-81.358,-54.906 -83.267,-55.093 -85.187,-55.592C-88.352,-56.415 -90.335,-58.408 -93.957,-61.919C-95.333,-63.254 -97.17,-65.146 -99.188,-67.584C-100.511,-66.51 -101.826,-65.488 -103.129,-64.514C-103.181,-64.475 -103.234,-64.436 -103.286,-64.397C-103.746,-64.055 -104.202,-63.723 -104.658,-63.392C-105.061,-63.102 -105.463,-62.814 -105.863,-62.532C-105.959,-62.463 -106.056,-62.396 -106.153,-62.328C-108.552,-60.643 -110.894,-59.123 -113.155,-57.748C-113.418,-57.589 -113.68,-57.431 -113.941,-57.276C-114.326,-57.045 -114.708,-56.821 -115.089,-56.599C-115.482,-56.371 -115.876,-56.14 -116.263,-55.92C-116.272,-55.915 -116.28,-55.91 -116.289,-55.905C-120.372,-53.59 -124.116,-51.774 -127.34,-50.354C-131.855,-48.365 -140.709,-44.499 -152.186,-42.394C-152.198,-42.392 -152.21,-42.39 -152.222,-42.388C-153.854,-42.089 -155.538,-41.826 -157.271,-41.609C-162.65,-40.936 -168.01,-40.673 -173.37,-40.826C-175.345,-40.882 -179.37,-41.054 -184.921,-41.8C-194.341,-43.066 -212.159,-45.643 -229.69,-56.917C-230.999,-57.759 -232.025,-58.468 -232.575,-58.853C-232.85,-58.051 -233.273,-56.887 -233.856,-55.509C-234.623,-53.695 -235.357,-52.353 -236.713,-49.699C-237.398,-48.356 -238.109,-47.017 -238.928,-45.754C-240.967,-42.608 -243.846,-40.717 -247.546,-40.016C-249.14,-39.714 -250.724,-39.495 -252.343,-39.455C-260.128,-39.265 -265.839,-40.706 -267.047,-41.041C-268.353,-41.404 -269.406,-41.76 -270.08,-41.999C-270.894,-40.13 -271.623,-38.584 -272.171,-37.451C-274.587,-32.473 -275.803,-30.854 -277.39,-29.534C-277.928,-29.087 -278.405,-28.768 -278.712,-28.575C-279.297,-28.007 -280.207,-27.19 -281.431,-26.364C-282.786,-25.449 -285.433,-23.91 -285.91,-24.446C-286.249,-24.873 -284.891,-26.051 -284.144,-28.784C-283.79,-30.08 -284.043,-30.008 -283.703,-31.807C-283.385,-33.491 -282.981,-34.555 -282.696,-35.42C-282.671,-35.495 -282.648,-35.571 -282.625,-35.643C-282.591,-35.752 -282.558,-35.863 -282.529,-35.966C-282.495,-36.086 -282.467,-36.207 -282.442,-36.323C-282.428,-36.387 -282.417,-36.453 -282.406,-36.517C-282.384,-36.646 -282.368,-36.779 -282.359,-36.91C-282.356,-36.958 -282.357,-37.009 -282.356,-37.057C-282.353,-37.202 -282.358,-37.351 -282.375,-37.503C-282.376,-37.511 -282.375,-37.519 -282.376,-37.528C-282.395,-37.681 -282.411,-37.833 -282.454,-38C-282.531,-38.301 -282.641,-38.73 -282.824,-39.109C-283.007,-39.491 -283.263,-39.825 -283.635,-39.93C-284.991,-40.311 -286.052,-37.136 -290.174,-35.063C-291.163,-34.567 -291.099,-34.75 -291.986,-34.272C-295.568,-32.339 -296.574,-29.35 -297.16,-29.596C-297.212,-29.618 -297.248,-29.676 -297.274,-29.761C-297.45,-30.413 -296.945,-32.775 -296.035,-36.965C-295.479,-39.529 -295.281,-40.174 -294.944,-40.949C-294.083,-42.93 -293.152,-43.829 -293.474,-44.267C-293.475,-44.268 -293.476,-44.268 -293.477,-44.269C-293.479,-44.272 -293.478,-44.276 -293.48,-44.28C-293.646,-44.505 -294.127,-44.586 -297.3,-43.469C-300.19,-42.451 -301.635,-41.943 -303.031,-41.109C-305.823,-39.443 -306.687,-37.955 -307.203,-38.275C-307.206,-38.277 -307.208,-38.281 -307.211,-38.283C-307.247,-38.317 -307.271,-38.371 -307.299,-38.417C-307.753,-39.16 -306.789,-42.068 -305.743,-44.046C-305.129,-45.208 -304.456,-46.111 -303.466,-47.437C-302.966,-48.109 -302.387,-48.809 -301.634,-49.543C-301.604,-49.572 -301.584,-49.599 -301.553,-49.628C-301.551,-49.63 -301.547,-49.633 -301.545,-49.635C-300.874,-50.07 -299.923,-50.785 -299.032,-51.885C-298.125,-53.003 -297.025,-54.83 -297.442,-55.253L-297.443,-55.253C-297.446,-55.256 -297.445,-55.262 -297.448,-55.265C-297.619,-55.439 -297.95,-55.279 -300.018,-54.454C-301.684,-53.79 -302.529,-53.454 -303.105,-53.274C-303.449,-53.167 -303.71,-53.095 -303.935,-53.038C-304.507,-52.893 -304.849,-52.842 -305.749,-52.537C-305.974,-52.461 -306.772,-52.186 -307.806,-51.726C-310.108,-50.702 -310.702,-50.04 -310.965,-50.251C-311.43,-50.678 -309.904,-53.426 -308.732,-55.201C-308.264,-55.911 -307.704,-56.762 -306.984,-57.652C-306.503,-58.25 -305.961,-58.862 -305.28,-59.473C-304.696,-59.997 -303.048,-61.415 -296.607,-64.28C-294.27,-65.319 -291.687,-66.456 -288.074,-67.653C-288.021,-67.67 -287.978,-67.687 -287.925,-67.705C-284.788,-68.736 -282.968,-69.335 -280.276,-69.76C-274.123,-70.731 -270.864,-69.619 -270.092,-69.34C-268.945,-68.924 -268.046,-68.441 -267.442,-68.08C-267.209,-68.877 -266.839,-70.198 -266.466,-71.859C-266.363,-72.322 -266.275,-72.741 -266.193,-73.155C-265.923,-74.523 -265.719,-75.846 -265.248,-78.544C-265.087,-79.469 -264.836,-80.886 -264.513,-82.638C-264.515,-82.64 -264.518,-82.641 -264.52,-82.643C-264.52,-82.645 -264.519,-82.648 -264.519,-82.651C-265.184,-83.019 -266.187,-83.557 -267.43,-84.159C-283.45,-91.913 -298.791,-90.578 -302.808,-90.129C-308.697,-89.471 -319.401,-87.436 -330.338,-80.485C-334.243,-78.003 -337.914,-75.042 -341.335,-71.564C-351.638,-61.096 -357.311,-48.732 -358.182,-34.405C-358.184,-34.377 -358.185,-34.348 -358.187,-34.32C-358.236,-33.497 -358.275,-32.671 -358.293,-31.835C-358.295,-31.71 -358.292,-31.583 -358.294,-31.458C-358.305,-30.711 -358.317,-29.963 -358.303,-29.205C-358.269,-27.408 -358.098,-25.65 -357.823,-23.923C-334.49,46.69 -264.836,97.942 -182.512,97.942C-88.039,97.942 -10.24,30.453 -0.001,-56.344L0,-56.344L0,-56.349" style="fill:rgb(44,74,118);fill-rule:nonzero;"/> </g> <g transform="matrix(1,0,0,1,416.305,294.025)"> <path d="M0,-56.349C0.186,-57.925 0.351,-59.507 0.492,-61.095C0.495,-61.128 0.498,-61.161 0.501,-61.194C0.632,-62.683 0.744,-64.176 0.835,-65.674C0.845,-65.828 0.857,-65.98 0.866,-66.133C0.945,-67.501 1.006,-68.874 1.051,-70.25C1.06,-70.512 1.075,-70.772 1.083,-71.034C1.128,-72.616 1.155,-74.203 1.155,-75.795L1.155,-75.844C1.155,-76.429 1.144,-77.024 1.129,-77.624C1.064,-83.468 0.703,-89.244 0.045,-94.936L-0.353,-97.991C-4.41,-127.178 -18.089,-152.685 -18.62,-154.291C-18.586,-153.971 -18.569,-153.604 -18.609,-153.184C-18.677,-152.45 -18.968,-151.923 -19.027,-151.506C-19.209,-150.207 -20.634,-147.253 -22.955,-144.964C-23.949,-143.983 -24.8,-143.428 -25.379,-143.035C-27.793,-141.393 -29.869,-139.403 -34.021,-135.424C-38.364,-131.261 -39.038,-130.006 -43.956,-123.926C-48.673,-118.093 -53.794,-112.703 -59.612,-108.027L-59.63,-108.055C-60.392,-107.443 -61.158,-106.834 -61.944,-106.247C-62.183,-106.069 -62.415,-105.885 -62.646,-105.699C-62.823,-105.571 -62.992,-105.435 -63.169,-105.308C-64.837,-104.114 -66.348,-102.729 -67.668,-101.144C-68.225,-100.475 -68.362,-99.85 -69.388,-98.232C-70.292,-96.804 -70.631,-96.424 -71.326,-95.319C-71.837,-94.505 -72.55,-93.286 -73.284,-91.691C-73.281,-91.688 -73.279,-91.684 -73.277,-91.681C-73.277,-91.68 -73.277,-91.679 -73.278,-91.679C-72.52,-90.401 -71.303,-88.865 -69.481,-88.421C-67.212,-87.868 -65.417,-89.35 -61.957,-90.892C-60.365,-91.601 -57.181,-92.964 -53.573,-93.438C-52.377,-93.595 -51.22,-93.633 -50.094,-93.602L-50.093,-93.602L-50.102,-93.615C-47.214,-93.537 -44.56,-92.959 -42.163,-92.429C-40.206,-91.997 -38.914,-91.557 -36.349,-91.192C-35.66,-91.094 -34.496,-90.947 -32.913,-90.573C-32.346,-90.439 -31.625,-90.218 -30.182,-89.777C-29.016,-89.42 -28.402,-89.211 -27.715,-88.716C-27.323,-88.434 -27.037,-88.152 -26.849,-87.949C-24.604,-87.21 -23.427,-86.078 -22.827,-85.347C-22.33,-84.741 -21.534,-83.564 -21.747,-83.354C-21.867,-83.235 -22.268,-83.466 -22.404,-83.541C-23.159,-83.954 -24.644,-84.397 -27.855,-84.497C-29.202,-84.462 -30.318,-84.397 -31.138,-84.339C-31.917,-84.284 -32.341,-84.242 -32.87,-84.132C-33.642,-83.971 -35.354,-83.615 -35.426,-82.942C-35.468,-82.557 -34.957,-82.21 -34.194,-81.707C-33.273,-81.098 -32.655,-80.886 -31.733,-80.471C-31.21,-80.236 -29.74,-79.61 -28.586,-78.687C-27.944,-78.173 -27.064,-77.301 -26.32,-75.84C-25.969,-75.447 -25.481,-74.839 -25.029,-74.02C-24.368,-72.821 -23.643,-70.916 -24.079,-70.618C-24.552,-70.295 -25.711,-72.402 -28.313,-72.921C-29.057,-73.07 -29.151,-72.935 -30.485,-73.147C-31.766,-73.35 -32.473,-73.599 -33.51,-73.882C-36.124,-74.596 -37.885,-75.06 -38.162,-74.569C-38.237,-74.435 -38.194,-74.247 -38.094,-74.045C-37.933,-73.71 -37.614,-73.337 -37.428,-73.119C-36.793,-72.378 -36.34,-72.348 -35.575,-71.526C-35.491,-71.435 -35.435,-71.368 -35.343,-71.244L-35.374,-71.291C-35.27,-71.153 -35.118,-70.937 -34.787,-70.476C-33.152,-68.195 -33.231,-68.412 -32.988,-67.98C-32.771,-67.595 -32.601,-67.224 -32.449,-66.858L-32.492,-66.922C-32.258,-66.369 -32.06,-65.828 -31.886,-65.298C-31.883,-65.289 -31.88,-65.28 -31.877,-65.271C-31.708,-64.752 -31.586,-64.311 -31.506,-63.997C-31.383,-63.623 -31.221,-63.076 -31.083,-62.403C-30.782,-60.935 -30.559,-58.671 -31.03,-58.526C-31.433,-58.403 -31.883,-59.967 -33.782,-61.501C-34.207,-61.843 -34.585,-62.089 -34.84,-62.244C-35.71,-62.54 -36.775,-62.988 -37.909,-63.678C-39.275,-64.51 -40.299,-65.424 -41.018,-66.172C-41.437,-66.47 -41.8,-66.706 -42.075,-66.879C-42.586,-67.2 -42.763,-67.282 -42.956,-67.233C-43.318,-67.14 -43.475,-66.647 -43.485,-66.614C-43.568,-66.341 -43.507,-66.082 -43.346,-65.792C-43.08,-65.306 -42.529,-64.733 -41.893,-63.861C-41.509,-63.333 -40.933,-62.541 -40.441,-61.541C-40.147,-60.943 -39.884,-60.271 -39.71,-59.536C-39.603,-59.087 -39.583,-58.84 -39.392,-58.102C-39.074,-56.876 -38.827,-56.394 -38.58,-55.6C-38.181,-54.318 -37.802,-52.285 -38.227,-52.1C-38.533,-51.968 -39.029,-52.885 -40.609,-54.384C-41.236,-54.979 -41.784,-55.428 -42.143,-55.712C-44.994,-56.998 -46.681,-58.515 -47.714,-59.718C-48.493,-60.627 -49.868,-62.486 -52.294,-63.166C-52.56,-63.24 -52.783,-63.285 -52.935,-63.312C-56.97,-62.938 -60.077,-62.057 -62.194,-61.308C-66.105,-59.924 -70.009,-57.493 -75.67,-56.017C-76.891,-55.698 -78.102,-55.449 -79.439,-55.226C-81.358,-54.906 -83.267,-55.093 -85.187,-55.592C-88.352,-56.415 -90.335,-58.408 -93.957,-61.919C-95.333,-63.254 -97.17,-65.146 -99.188,-67.584C-100.511,-66.51 -101.826,-65.488 -103.129,-64.514C-103.181,-64.475 -103.234,-64.436 -103.286,-64.397C-103.746,-64.055 -104.202,-63.723 -104.658,-63.392C-105.061,-63.102 -105.463,-62.814 -105.863,-62.532C-105.959,-62.463 -106.056,-62.396 -106.153,-62.328C-108.552,-60.643 -110.894,-59.123 -113.155,-57.748C-113.418,-57.589 -113.68,-57.431 -113.941,-57.276C-114.326,-57.045 -114.708,-56.821 -115.089,-56.599C-115.482,-56.371 -115.876,-56.14 -116.263,-55.92C-116.272,-55.915 -116.28,-55.91 -116.289,-55.905C-120.372,-53.59 -124.116,-51.774 -127.34,-50.354C-131.855,-48.365 -140.709,-44.499 -152.186,-42.394C-152.198,-42.392 -152.21,-42.39 -152.222,-42.388C-153.854,-42.089 -155.538,-41.826 -157.271,-41.609C-162.65,-40.936 -168.01,-40.673 -173.37,-40.826C-175.345,-40.882 -179.37,-41.054 -184.921,-41.8C-194.341,-43.066 -212.159,-45.643 -229.69,-56.917C-230.999,-57.759 -232.025,-58.468 -232.575,-58.853C-232.85,-58.051 -233.273,-56.887 -233.856,-55.509C-234.623,-53.695 -235.357,-52.353 -236.713,-49.699C-237.398,-48.356 -238.109,-47.017 -238.928,-45.754C-240.967,-42.608 -243.846,-40.717 -247.546,-40.016C-249.14,-39.714 -250.724,-39.495 -252.343,-39.455C-260.128,-39.265 -265.839,-40.706 -267.047,-41.041C-268.353,-41.404 -269.406,-41.76 -270.08,-41.999C-270.894,-40.13 -271.623,-38.584 -272.171,-37.451C-274.587,-32.473 -275.803,-30.854 -277.39,-29.534C-277.928,-29.087 -278.405,-28.768 -278.712,-28.575C-279.297,-28.007 -280.207,-27.19 -281.431,-26.364C-282.786,-25.449 -285.433,-23.91 -285.91,-24.446C-286.249,-24.873 -284.891,-26.051 -284.144,-28.784C-283.79,-30.08 -284.043,-30.008 -283.703,-31.807C-283.385,-33.491 -282.981,-34.555 -282.696,-35.42C-282.671,-35.495 -282.648,-35.571 -282.625,-35.643C-282.591,-35.752 -282.558,-35.863 -282.529,-35.966C-282.495,-36.086 -282.467,-36.207 -282.442,-36.323C-282.428,-36.387 -282.417,-36.453 -282.406,-36.517C-282.384,-36.646 -282.368,-36.779 -282.359,-36.91C-282.356,-36.958 -282.357,-37.009 -282.356,-37.057C-282.353,-37.202 -282.358,-37.351 -282.375,-37.503C-282.376,-37.511 -282.375,-37.519 -282.376,-37.528C-282.395,-37.681 -282.411,-37.833 -282.454,-38C-282.531,-38.301 -282.641,-38.73 -282.824,-39.109C-283.007,-39.491 -283.263,-39.825 -283.635,-39.93C-284.991,-40.311 -286.052,-37.136 -290.174,-35.063C-291.163,-34.567 -291.099,-34.75 -291.986,-34.272C-295.568,-32.339 -296.574,-29.35 -297.16,-29.596C-297.212,-29.618 -297.248,-29.676 -297.274,-29.761C-297.45,-30.413 -296.945,-32.775 -296.035,-36.965C-295.479,-39.529 -295.281,-40.174 -294.944,-40.949C-294.083,-42.93 -293.152,-43.829 -293.474,-44.267C-293.475,-44.268 -293.476,-44.268 -293.477,-44.269C-293.479,-44.272 -293.478,-44.276 -293.48,-44.28C-293.646,-44.505 -294.127,-44.586 -297.3,-43.469C-300.19,-42.451 -301.635,-41.943 -303.031,-41.109C-305.823,-39.443 -306.687,-37.955 -307.203,-38.275C-307.206,-38.277 -307.208,-38.281 -307.211,-38.283C-307.247,-38.317 -307.271,-38.371 -307.299,-38.417C-307.753,-39.16 -306.789,-42.068 -305.743,-44.046C-305.129,-45.208 -304.456,-46.111 -303.466,-47.437C-302.966,-48.109 -302.387,-48.809 -301.634,-49.543C-301.604,-49.572 -301.584,-49.599 -301.553,-49.628C-301.551,-49.63 -301.547,-49.633 -301.545,-49.635C-300.874,-50.07 -299.923,-50.785 -299.032,-51.885C-298.125,-53.003 -297.025,-54.83 -297.442,-55.253L-297.443,-55.253C-297.446,-55.256 -297.445,-55.262 -297.448,-55.265C-297.619,-55.439 -297.95,-55.279 -300.018,-54.454C-301.684,-53.79 -302.529,-53.454 -303.105,-53.274C-303.449,-53.167 -303.71,-53.095 -303.935,-53.038C-304.507,-52.893 -304.849,-52.842 -305.749,-52.537C-305.974,-52.461 -306.772,-52.186 -307.806,-51.726C-310.108,-50.702 -310.702,-50.04 -310.965,-50.251C-311.43,-50.678 -309.904,-53.426 -308.732,-55.201C-308.264,-55.911 -307.704,-56.762 -306.984,-57.652C-306.503,-58.25 -305.961,-58.862 -305.28,-59.473C-304.696,-59.997 -303.048,-61.415 -296.607,-64.28C-294.27,-65.319 -291.687,-66.456 -288.074,-67.653C-288.021,-67.67 -287.978,-67.687 -287.925,-67.705C-284.788,-68.736 -282.968,-69.335 -280.276,-69.76C-274.123,-70.731 -270.864,-69.619 -270.092,-69.34C-268.945,-68.924 -268.046,-68.441 -267.442,-68.08C-267.209,-68.877 -266.839,-70.198 -266.466,-71.859C-266.363,-72.322 -266.275,-72.741 -266.193,-73.155C-265.923,-74.523 -265.719,-75.846 -265.248,-78.544C-265.087,-79.469 -264.836,-80.886 -264.513,-82.638C-264.515,-82.64 -264.518,-82.641 -264.52,-82.643C-264.52,-82.645 -264.519,-82.648 -264.519,-82.651C-265.184,-83.019 -266.187,-83.557 -267.43,-84.159C-283.45,-91.913 -298.791,-90.578 -302.808,-90.129C-308.697,-89.471 -319.401,-87.436 -330.338,-80.485C-334.243,-78.003 -337.914,-75.042 -341.335,-71.564C-351.638,-61.096 -357.311,-48.732 -358.182,-34.405C-358.184,-34.377 -358.185,-34.348 -358.187,-34.32C-358.236,-33.497 -358.275,-32.671 -358.293,-31.835C-358.295,-31.71 -358.292,-31.583 -358.294,-31.458C-358.305,-30.711 -358.317,-29.963 -358.303,-29.205C-358.269,-27.408 -358.098,-25.65 -357.823,-23.923C-334.49,46.69 -264.836,97.942 -182.512,97.942C-88.039,97.942 -10.24,30.453 -0.001,-56.344L0,-56.344L0,-56.349Z" style="fill:none;fill-rule:nonzero;stroke:rgb(44,74,118);stroke-width:0.01px;"/> </g> <g transform="matrix(1,0,0,1,361.177,347.454)"> <path d="M0,0.003C0.001,0.002 0.002,0.001 0.003,0C0.002,0.001 0.001,0.002 0,0.003" style="fill:rgb(0,71,110);fill-rule:nonzero;"/> </g> <g transform="matrix(1,0,0,1,361.177,347.454)"> <path d="M0,0.003C0.001,0.002 0.002,0.001 0.003,0C0.002,0.001 0.001,0.002 0,0.003Z" style="fill:none;fill-rule:nonzero;stroke:rgb(17,72,107);stroke-width:0.01px;"/> </g> <g transform="matrix(1,0,0,1,166.533,342.417)"> <path d="M25.502,-19.327L-0.002,-19.327L12.75,0L12.75,-0.001L12.751,0L25.502,-19.327Z" style="fill:rgb(0,71,110);fill-rule:nonzero;stroke:rgb(17,72,107);stroke-width:0.01px;"/> </g> <g transform="matrix(1,0,0,1,153.776,361.75)"> <path d="M0,-19.33L12.753,0L25.506,-19.33L0,-19.33Z" style="fill:rgb(0,71,110);fill-rule:nonzero;stroke:rgb(17,72,107);stroke-width:0.01px;"/> </g> <g transform="matrix(1,0,0,1,102.748,323.09)"> <path d="M0,-19.33L-12.726,-0.041L-12.746,0L12.757,0L12.761,-0.006L0.011,-19.33L0,-19.33Z" style="fill:rgb(0,71,110);fill-rule:nonzero;stroke:rgb(17,72,107);stroke-width:0.01px;"/> </g> <g transform="matrix(1,0,0,1,128.269,323.09)"> <path d="M0,-19.33L-0.011,-19.33L-12.761,-0.006L-12.757,0L12.746,0L12.749,-0.006L0,-19.33Z" style="fill:rgb(0,71,110);fill-rule:nonzero;stroke:rgb(17,72,107);stroke-width:0.01px;"/> </g> <g transform="matrix(1,0,0,1,128.264,284.437)"> <path d="M0,19.314L-12.748,-0.008L-12.763,-0.008L-25.51,19.314L-25.505,19.322L-0.006,19.322L0,19.314Z" style="fill:rgb(0,71,110);fill-rule:nonzero;stroke:rgb(17,72,107);stroke-width:0.01px;"/> </g> <g transform="matrix(1,0,0,1,149.833,225.08)"> <path d="M0,-2.927C-0.373,-1.266 -0.743,0.056 -0.976,0.853C-1.58,0.492 -2.479,0.009 -3.626,-0.407C-4.398,-0.687 -7.657,-1.798 -13.81,-0.827C-16.502,-0.402 -18.322,0.196 -21.459,1.228C-21.511,1.245 -21.559,1.262 -21.611,1.279L-21.602,1.292C-21.549,1.275 -21.506,1.258 -21.453,1.24C-18.316,0.209 -16.496,-0.39 -13.804,-0.815C-7.652,-1.786 -4.392,-0.674 -3.621,-0.395C-2.474,0.021 -1.575,0.504 -0.971,0.865C-0.737,0.069 -0.367,-1.253 0.006,-2.914C0.109,-3.377 0.197,-3.795 0.279,-4.21L0.273,-4.219C0.191,-3.806 0.104,-3.389 0,-2.927" style="fill:rgb(0,71,110);fill-rule:nonzero;"/> </g> <g transform="matrix(1,0,0,1,149.833,225.08)"> <path d="M0,-2.927C-0.373,-1.266 -0.743,0.056 -0.976,0.853C-1.58,0.492 -2.479,0.009 -3.626,-0.407C-4.398,-0.687 -7.657,-1.798 -13.81,-0.827C-16.502,-0.402 -18.322,0.196 -21.459,1.228C-21.511,1.245 -21.559,1.262 -21.611,1.279L-21.602,1.292C-21.549,1.275 -21.506,1.258 -21.453,1.24C-18.316,0.209 -16.496,-0.39 -13.804,-0.815C-7.652,-1.786 -4.392,-0.674 -3.621,-0.395C-2.474,0.021 -1.575,0.504 -0.971,0.865C-0.737,0.069 -0.367,-1.253 0.006,-2.914C0.109,-3.377 0.197,-3.795 0.279,-4.21L0.273,-4.219C0.191,-3.806 0.104,-3.389 0,-2.927Z" style="fill:none;fill-rule:nonzero;stroke:rgb(17,72,107);stroke-width:0.01px;"/> </g> <g transform="matrix(1,0,0,1,115.537,226.357)"> <path d="M0,-19.249L-0.016,-19.249L12.686,0.002C12.738,-0.015 12.785,-0.032 12.838,-0.049C15.975,-1.081 17.795,-1.679 20.487,-2.104C26.639,-3.075 29.899,-1.964 30.67,-1.684C31.817,-1.268 32.716,-0.785 33.32,-0.425C33.554,-1.221 33.924,-2.543 34.297,-4.204C34.4,-4.666 34.488,-5.083 34.569,-5.497L25.5,-19.251L0,-19.249Z" style="fill:rgb(0,71,110);fill-rule:nonzero;stroke:rgb(17,72,107);stroke-width:0.01px;"/> </g> <g transform="matrix(1,0,0,1,133.949,257.115)"> <path d="M0,-0.147C-0.001,-0.098 0,-0.048 -0.003,0C0,-0.048 -0.001,-0.098 0,-0.147" style="fill:rgb(0,71,110);fill-rule:nonzero;"/> </g> <g transform="matrix(1,0,0,1,133.949,257.115)"> <path d="M0,-0.147C-0.001,-0.098 0,-0.048 -0.003,0C0,-0.048 -0.001,-0.098 0,-0.147Z" style="fill:none;fill-rule:nonzero;stroke:rgb(17,72,107);stroke-width:0.01px;"/> </g> <g transform="matrix(1,0,0,1,132.156,262.957)"> <path d="M0,2.272C-0.753,5.025 -2.13,6.203 -1.763,6.622C-1.762,6.623 -1.761,6.622 -1.761,6.623C-2.099,6.195 -0.741,5.017 0.006,2.285C0.36,0.988 0.106,1.061 0.446,-0.738C0.765,-2.422 1.169,-3.486 1.453,-4.351C1.165,-3.49 0.758,-2.429 0.441,-0.751C0.101,1.048 0.354,0.976 0,2.272" style="fill:rgb(0,71,110);fill-rule:nonzero;"/> </g> <g transform="matrix(1,0,0,1,132.156,262.957)"> <path d="M0,2.272C-0.753,5.025 -2.13,6.203 -1.763,6.622C-1.762,6.623 -1.761,6.622 -1.761,6.623C-2.099,6.195 -0.741,5.017 0.006,2.285C0.36,0.988 0.106,1.061 0.446,-0.738C0.765,-2.422 1.169,-3.486 1.453,-4.351C1.165,-3.49 0.758,-2.429 0.441,-0.751C0.101,1.048 0.354,0.976 0,2.272Z" style="fill:none;fill-rule:nonzero;stroke:rgb(17,72,107);stroke-width:0.01px;"/> </g> <g transform="matrix(1,0,0,1,133.776,258.382)"> <path d="M0,-0.323C-0.03,-0.217 -0.06,-0.111 -0.096,0C-0.062,-0.109 -0.029,-0.219 0,-0.323Z" style="fill:rgb(0,71,110);fill-rule:nonzero;stroke:rgb(17,72,107);stroke-width:0.01px;"/> </g> <g transform="matrix(1,0,0,1,133.93,256.498)"> <path d="M0,0.025C-0.001,0.017 0,0.009 -0.001,0L-0.003,0.004C-0.003,0.011 -0.001,0.018 0,0.025" style="fill:rgb(0,71,110);fill-rule:nonzero;"/> </g> <g transform="matrix(1,0,0,1,133.93,256.498)"> <path d="M0,0.025C-0.001,0.017 0,0.009 -0.001,0L-0.003,0.004C-0.003,0.011 -0.001,0.018 0,0.025Z" style="fill:none;fill-rule:nonzero;stroke:rgb(17,72,107);stroke-width:0.01px;"/> </g> <g transform="matrix(1,0,0,1,133.899,257.703)"> <path d="M0,-0.194C-0.011,-0.13 -0.022,-0.065 -0.036,0C-0.022,-0.065 -0.011,-0.13 0,-0.194" style="fill:rgb(0,71,110);fill-rule:nonzero;"/> </g> <g transform="matrix(1,0,0,1,133.899,257.703)"> <path d="M0,-0.194C-0.011,-0.13 -0.022,-0.065 -0.036,0C-0.022,-0.065 -0.011,-0.13 0,-0.194Z" style="fill:none;fill-rule:nonzero;stroke:rgb(17,72,107);stroke-width:0.01px;"/> </g> <g transform="matrix(1,0,0,1,128.264,271.382)"> <path d="M0,-6.297L-0.009,-6.283L-12.755,13.036L-12.748,13.047L12.748,13.047L12.755,13.036L25.501,-6.283L25.52,-6.283L25.51,-6.297L32.452,-16.82C26.364,-17.014 22.032,-18.099 21,-18.386C19.694,-18.749 18.641,-19.104 17.967,-19.344C17.153,-17.474 16.424,-15.928 15.876,-14.796C13.46,-9.818 12.244,-8.199 10.657,-6.878C10.119,-6.431 9.642,-6.113 9.335,-5.92C8.75,-5.351 7.84,-4.535 6.616,-3.708C5.26,-2.793 2.608,-1.25 2.135,-1.791C2.132,-1.794 2.134,-1.8 2.131,-1.803C2.131,-1.803 2.129,-1.803 2.129,-1.804C1.762,-2.223 3.139,-3.4 3.892,-6.154C4.246,-7.45 3.992,-7.377 4.333,-9.177C4.65,-10.855 5.057,-11.915 5.345,-12.777C5.37,-12.853 5.393,-12.927 5.416,-13C5.452,-13.111 5.482,-13.218 5.512,-13.323C5.546,-13.444 5.574,-13.563 5.599,-13.68C5.613,-13.745 5.624,-13.81 5.635,-13.874C5.657,-14.005 5.674,-14.135 5.682,-14.267C5.685,-14.316 5.684,-14.366 5.685,-14.415C5.687,-14.56 5.684,-14.707 5.666,-14.86C5.665,-14.867 5.664,-14.874 5.663,-14.881L0,-6.297Z" style="fill:rgb(0,71,110);fill-rule:nonzero;stroke:rgb(17,72,107);stroke-width:0.01px;"/> </g> <g transform="matrix(1,0,0,1,90.0357,265.099)"> <path d="M0,19.33L25.465,19.33L25.473,19.319L12.727,0L12.708,0L-0.035,19.316L-0.009,19.316L0,19.33Z" style="fill:rgb(0,71,110);fill-rule:nonzero;stroke:rgb(17,72,107);stroke-width:0.01px;"/> </g> <g transform="matrix(1,0,0,1,128.269,284.419)"> <path d="M0,19.341L25.499,19.341L25.505,19.333L25.51,19.341L51.007,19.341L51.013,19.333L63.761,0.011L38.266,0.011L38.26,0L38.252,0.011L12.742,0.011L-0.006,19.333L0,19.341Z" style="fill:rgb(0,71,110);fill-rule:nonzero;stroke:rgb(17,72,107);stroke-width:0.01px;"/> </g> <g transform="matrix(1,0,0,1,357.853,323.091)"> <path d="M0,19.325L0.001,19.326L12.752,-0.001L-12.751,-0.001L-0.001,19.326L0,19.325Z" style="fill:rgb(0,71,110);fill-rule:nonzero;stroke:rgb(17,72,107);stroke-width:0.01px;"/> </g> <g transform="matrix(0.550707,0.834699,0.834699,-0.550707,344.627,335.302)"> <path d="M-0.823,-14.172L17.987,-14.172C17.885,-10.235 17.653,-6.312 17.3,-2.408L13.223,7.118L-0.823,-14.172Z" style="fill:rgb(0,71,110);fill-rule:nonzero;stroke:rgb(17,72,107);stroke-width:0.01px;"/> </g> <g transform="matrix(0.550633,0.834747,0.834747,-0.550633,375.445,320.517)"> <path d="M-0.514,-5.451L7.159,-5.451C6.429,-2.755 5.634,-0.081 4.779,2.573L-0.514,-5.451Z" style="fill:rgb(0,71,110);fill-rule:nonzero;stroke:rgb(17,72,107);stroke-width:0.01px;"/> </g> <g transform="matrix(1,0,0,1,281.317,323.09)"> <path d="M0,-19.33L-12.731,-0.033L-12.721,-0.016L-12.731,0L12.757,0L12.761,-0.006L0.011,-19.33L0,-19.33Z" style="fill:rgb(0,71,110);fill-rule:nonzero;stroke:rgb(17,72,107);stroke-width:0.01px;"/> </g> <g transform="matrix(1,0,0,1,306.832,284.437)"> <path d="M0,19.314L-12.748,-0.008L-12.762,-0.008L-25.51,19.314L-25.505,19.322L-0.006,19.322L0,19.314Z" style="fill:rgb(0,71,110);fill-rule:nonzero;stroke:rgb(17,72,107);stroke-width:0.01px;"/> </g> <g transform="matrix(1,0,0,1,354.361,188.326)"> <path d="M0,-0.548C-0.239,-0.37 -0.471,-0.185 -0.702,0C-0.455,-0.18 -0.214,-0.366 0.031,-0.548L0,-0.548Z" style="fill:rgb(0,71,110);fill-rule:nonzero;stroke:rgb(17,72,107);stroke-width:0.01px;"/> </g> <g transform="matrix(1,0,0,1,362.726,205.963)"> <path d="M0,-5.388C-3.608,-4.915 -6.792,-3.551 -8.384,-2.842C-11.844,-1.301 -13.638,0.182 -15.907,-0.371C-17.725,-0.814 -18.94,-2.343 -19.698,-3.619C-19.698,-3.618 -19.698,-3.617 -19.699,-3.617C-18.941,-2.339 -17.724,-0.803 -15.902,-0.359C-13.633,0.195 -11.838,-1.288 -8.378,-2.829C-6.786,-3.539 -3.602,-4.902 0.006,-5.375C1.202,-5.532 2.359,-5.571 3.485,-5.54L3.477,-5.553C2.352,-5.583 1.196,-5.545 0,-5.388" style="fill:rgb(0,71,110);fill-rule:nonzero;"/> </g> <g transform="matrix(1,0,0,1,362.726,205.963)"> <path d="M0,-5.388C-3.608,-4.915 -6.792,-3.551 -8.384,-2.842C-11.844,-1.301 -13.638,0.182 -15.907,-0.371C-17.725,-0.814 -18.94,-2.343 -19.698,-3.619C-19.698,-3.618 -19.698,-3.617 -19.699,-3.617C-18.941,-2.339 -17.724,-0.803 -15.902,-0.359C-13.633,0.195 -11.838,-1.288 -8.378,-2.829C-6.786,-3.539 -3.602,-4.902 0.006,-5.375C1.202,-5.532 2.359,-5.571 3.485,-5.54L3.477,-5.553C2.352,-5.583 1.196,-5.545 0,-5.388Z" style="fill:none;fill-rule:nonzero;stroke:rgb(17,72,107);stroke-width:0.01px;"/> </g> <g transform="matrix(1,0,0,1,346.818,188.331)"> <path d="M0,17.261C2.269,17.814 4.063,16.331 7.523,14.79C9.116,14.081 12.299,12.718 15.907,12.244C17.103,12.087 18.26,12.049 19.384,12.079L11.05,-0.553L7.572,-0.553C7.328,-0.37 7.087,-0.185 6.84,-0.005C6.67,0.132 6.502,0.271 6.323,0.399C4.655,1.593 3.144,2.978 1.825,4.563C1.267,5.232 1.13,5.856 0.104,7.475C-0.8,8.903 -1.138,9.283 -1.834,10.388C-2.345,11.202 -3.057,12.42 -3.79,14.014C-3.032,15.289 -1.818,16.818 0,17.261" style="fill:rgb(0,71,110);fill-rule:nonzero;"/> </g> <g transform="matrix(1,0,0,1,346.818,188.331)"> <path d="M0,17.261C2.269,17.814 4.063,16.331 7.523,14.79C9.116,14.081 12.299,12.718 15.907,12.244C17.103,12.087 18.26,12.049 19.384,12.079L11.05,-0.553L7.572,-0.553C7.328,-0.37 7.087,-0.185 6.84,-0.005C6.67,0.132 6.502,0.271 6.323,0.399C4.655,1.593 3.144,2.978 1.825,4.563C1.267,5.232 1.13,5.856 0.104,7.475C-0.8,8.903 -1.138,9.283 -1.834,10.388C-2.345,11.202 -3.057,12.42 -3.79,14.014C-3.032,15.289 -1.818,16.818 0,17.261Z" style="fill:none;fill-rule:nonzero;stroke:rgb(17,72,107);stroke-width:0.01px;"/> </g> <g transform="matrix(1,0,0,1,310.442,230.633)"> <path d="M0,0.861C0.4,0.578 0.801,0.292 1.205,0C0.802,0.291 0.4,0.578 0,0.861Z" style="fill:rgb(0,71,110);fill-rule:nonzero;stroke:rgb(17,72,107);stroke-width:0.01px;"/> </g> <g transform="matrix(1,0,0,1,313.019,229.512)"> <path d="M0,0.116C0.053,0.077 0.105,0.039 0.158,0C0.105,0.039 0.053,0.077 0,0.116" style="fill:rgb(0,71,110);fill-rule:nonzero;"/> </g> <g transform="matrix(1,0,0,1,313.019,229.512)"> <path d="M0,0.116C0.053,0.077 0.105,0.039 0.158,0C0.105,0.039 0.053,0.077 0,0.116Z" style="fill:none;fill-rule:nonzero;stroke:rgb(17,72,107);stroke-width:0.01px;"/> </g> <g transform="matrix(1,0,0,1,319.587,265.131)"> <path d="M0,-19.378L-0.011,-19.362L-12.755,-0.045L-12.764,-0.031L-25.51,19.288L-25.503,19.299L-0.007,19.299L0,19.288L12.746,-0.031L12.763,-0.031L12.755,-0.045L25.499,-19.362L25.52,-19.362L25.51,-19.377L25.511,-19.378L20.496,-26.979C19.459,-26.726 18.419,-26.508 17.284,-26.319C15.365,-25.999 13.457,-26.186 11.536,-26.685C8.371,-27.508 6.388,-29.5 2.766,-33.012C1.39,-34.346 -0.447,-36.238 -2.465,-38.677C-3.792,-37.599 -5.107,-36.588 -6.411,-35.619C-6.464,-35.579 -6.516,-35.542 -6.569,-35.502C-7.027,-35.163 -7.485,-34.826 -7.94,-34.498C-8.344,-34.205 -8.745,-33.92 -9.145,-33.637C-9.204,-33.595 -9.264,-33.551 -9.323,-33.509L0,-19.378Z" style="fill:rgb(0,71,110);fill-rule:nonzero;stroke:rgb(17,72,107);stroke-width:0.01px;"/> </g> <g transform="matrix(1,0,0,1,268.585,265.114)"> <path d="M0,19.302L0.008,19.316L25.485,19.316L25.492,19.305L12.747,-0.014L12.73,-0.014L-0.014,19.302L0,19.302Z" style="fill:rgb(0,71,110);fill-rule:nonzero;stroke:rgb(17,72,107);stroke-width:0.01px;"/> </g> <g transform="matrix(1,0,0,1,345.098,303.759)"> <path d="M0,-19.341L-0.007,-19.33L-25.518,-19.33L-38.265,-0.008L-38.26,0L-12.761,0L-12.755,-0.008L-12.75,0L12.749,0L12.754,-0.008L25.503,-19.33L0.007,-19.33L0,-19.341Z" style="fill:rgb(0,71,110);fill-rule:nonzero;stroke:rgb(17,72,107);stroke-width:0.01px;"/> </g> <g transform="matrix(1,0,0,1,141.023,342.415)"> <path d="M0,-19.325L12.75,0L25.5,-19.325L0,-19.325Z" style="fill:rgb(0,71,110);fill-rule:nonzero;stroke:rgb(17,72,107);stroke-width:0.01px;"/> </g> <g transform="matrix(1,0,0,1,179.286,361.75)"> <path d="M25.506,-19.33L-0.002,-19.33L12.751,0L12.752,-0.002L12.752,0L25.506,-19.33Z" style="fill:rgb(0,71,110);fill-rule:nonzero;stroke:rgb(17,72,107);stroke-width:0.01px;"/> </g> <g transform="matrix(1,0,0,1,396.118,154.359)"> <path d="M0,14.063L0.017,14.089L13.691,14.089C12.256,9.539 10.637,5.066 8.829,0.681L0.001,14.062L0,14.061L-0.001,14.062L-9.295,-0.026C-10.538,1.105 -11.97,2.473 -13.829,4.255C-17.741,8.004 -18.685,9.407 -22.426,14.089L-0.017,14.089L0,14.063Z" style="fill:rgb(0,71,110);fill-rule:nonzero;stroke:rgb(17,72,107);stroke-width:0.01px;"/> </g> <g transform="matrix(1,0,0,1,397.687,149.118)"> <path d="M0,-9.423C0.037,-9.092 0.056,-8.705 0.015,-8.263C-0.053,-7.53 -0.345,-7.003 -0.403,-6.586C-0.585,-5.287 -2.011,-2.332 -4.332,-0.043C-4.349,-0.027 -4.363,-0.016 -4.379,0L4.675,0C3.212,-3.191 1.656,-6.335 0,-9.423Z" style="fill:rgb(0,71,110);fill-rule:nonzero;stroke:rgb(17,72,107);stroke-width:0.01px;"/> </g> <g transform="matrix(1,0,0,1,192.043,342.417)"> <path d="M25.502,-19.327L-0.002,-19.327L12.749,0L12.749,-0.001L12.75,0L25.502,-19.327Z" style="fill:rgb(0,71,110);fill-rule:nonzero;stroke:rgb(17,72,107);stroke-width:0.01px;"/> </g> <g transform="matrix(1,0,0,1,294.077,303.766)"> <path d="M0,19.318L0.004,19.324L25.507,19.324L25.51,19.318L12.761,-0.006L12.749,-0.006L0,19.318Z" style="fill:rgb(0,71,110);fill-rule:nonzero;stroke:rgb(17,72,107);stroke-width:0.01px;"/> </g> <g transform="matrix(1,0,0,1,332.325,323.118)"> <path d="M0,19.271L0.019,19.299L12.769,-0.028L-12.734,-0.028L0,19.272L0,19.271Z" style="fill:rgb(0,71,110);fill-rule:nonzero;stroke:rgb(17,72,107);stroke-width:0.01px;"/> </g> <g transform="matrix(0.550715,0.834693,0.834693,-0.550715,359.862,341.159)"> <path d="M-0.053,-2.37L2.905,-2.37C2.73,-1.157 2.541,0.053 2.342,1.261L-0.053,-2.37Z" style="fill:rgb(0,71,110);fill-rule:nonzero;stroke:rgb(17,72,107);stroke-width:0.01px;"/> </g> <g transform="matrix(1,0,0,1,90.0021,303.746)"> <path d="M0,19.344L-0.004,19.338L-12.754,0L-14.49,2.63C-10.88,8.416 -6.912,14.013 -2.639,19.344L0,19.344Z" style="fill:rgb(0,71,110);fill-rule:nonzero;stroke:rgb(17,72,107);stroke-width:0.01px;"/> </g> <g transform="matrix(1,0,0,1,89.9984,303.746)"> <path d="M0,-19.328L-0.007,-19.317L-12.74,-0.018L-12.75,0L12.742,0L12.747,-0.008L0.007,-19.317L0,-19.328Z" style="fill:rgb(0,71,110);fill-rule:nonzero;stroke:rgb(17,72,107);stroke-width:0.01px;"/> </g> <g transform="matrix(1,0,0,1,268.571,303.77)"> <path d="M0,19.32L-0.004,19.314L-12.747,0L-12.749,0L-25.484,19.304L-25.474,19.32L0,19.32Z" style="fill:rgb(0,71,110);fill-rule:nonzero;stroke:rgb(17,72,107);stroke-width:0.01px;"/> </g> <g transform="matrix(1,0,0,1,268.568,303.745)"> <path d="M0,-19.326L-0.007,-19.316L-12.746,-0.008L-12.74,0L12.731,0L12.741,-0.015L0.007,-19.316L0,-19.326Z" style="fill:rgb(0,71,110);fill-rule:nonzero;stroke:rgb(17,72,107);stroke-width:0.01px;"/> </g> <g transform="matrix(1,0,0,1,166.529,381.082)"> <path d="M0,-19.332L12.755,0L25.509,-19.331L0,-19.332Z" style="fill:rgb(0,71,110);fill-rule:nonzero;stroke:rgb(17,72,107);stroke-width:0.01px;"/> </g> <g transform="matrix(0.550758,-0.834665,-0.834665,-0.550758,190.217,382.063)"> <path d="M-5.202,9.665L17.957,9.665L17.957,9.666L17.957,9.667L-5.202,9.665Z" style="fill:rgb(0,71,110);fill-rule:nonzero;stroke:rgb(17,72,107);stroke-width:0.01px;"/> </g> <g transform="matrix(1,0,0,1,192.04,361.753)"> <path d="M0,-0.001L-0.001,-0.001L0,0L0,-0.001Z" style="fill:rgb(0,71,110);fill-rule:nonzero;stroke:rgb(17,72,107);stroke-width:0.01px;"/> </g> <g transform="matrix(1,0,0,1,416.304,255.938)"> <path d="M0,-18.256L-7.418,-29.499L-7.43,-29.518L-20.171,-48.829L-20.185,-48.851L-32.925,-68.16L-32.94,-68.184L-44.304,-85.408C-44.304,-85.408 -53.912,-74.209 -59.611,-69.94L-58.453,-68.184L-58.436,-68.16L-58.435,-68.16L-50.101,-55.528C-47.213,-55.45 -44.559,-54.872 -42.162,-54.342C-40.206,-53.909 -38.913,-53.469 -36.348,-53.104C-35.66,-53.006 -34.496,-52.859 -32.913,-52.485C-32.345,-52.351 -31.624,-52.131 -30.182,-51.69C-29.015,-51.333 -28.401,-51.124 -27.714,-50.629C-27.323,-50.347 -27.036,-50.064 -26.849,-49.862C-24.603,-49.123 -23.426,-47.99 -22.826,-47.259C-22.33,-46.654 -21.534,-45.477 -21.746,-45.267C-21.866,-45.148 -22.267,-45.379 -22.403,-45.454C-23.159,-45.867 -24.643,-46.31 -27.854,-46.41C-29.201,-46.374 -30.318,-46.309 -31.138,-46.252C-31.917,-46.197 -32.341,-46.155 -32.87,-46.045C-33.641,-45.884 -35.353,-45.528 -35.426,-44.855C-35.468,-44.469 -34.956,-44.123 -34.194,-43.619C-33.272,-43.011 -32.655,-42.798 -31.732,-42.384C-31.209,-42.149 -29.739,-41.522 -28.586,-40.599C-27.944,-40.085 -27.064,-39.214 -26.319,-37.753C-25.968,-37.359 -25.481,-36.751 -25.029,-35.932C-24.367,-34.733 -23.642,-32.828 -24.079,-32.531C-24.552,-32.208 -25.71,-34.314 -28.312,-34.834C-29.056,-34.982 -29.15,-34.848 -30.484,-35.059C-31.766,-35.262 -32.472,-35.512 -33.51,-35.795C-35.389,-36.307 -36.827,-36.692 -37.59,-36.685C-37.615,-36.684 -37.64,-36.684 -37.664,-36.683L-37.659,-36.668L-35.374,-33.204C-35.269,-33.065 -35.117,-32.85 -34.786,-32.389C-33.151,-30.108 -33.23,-30.324 -32.987,-29.892C-32.77,-29.507 -32.601,-29.136 -32.449,-28.77L-20.187,-10.185L-20.197,-10.169L-32.942,9.148L-32.952,9.161L-45.697,28.48L-45.697,28.481L-45.703,28.492L-45.704,28.492L-58.453,47.813L-58.452,47.814L-58.456,47.822L-58.458,47.822L-71.207,67.146L-71.203,67.152L-45.699,67.152L-45.696,67.146L-32.946,47.822L-32.935,47.822L-32.94,47.813L-20.193,28.492L-20.179,28.492L-20.185,28.48L-7.44,9.161L-7.422,9.161L-7.43,9.148L-4.293,4.391C-2.351,-2.983 -0.91,-10.543 0,-18.256Z" style="fill:rgb(0,51,102);fill-rule:nonzero;stroke:rgb(28,55,100);stroke-width:0.01px;"/> </g> <g transform="matrix(-0.985086,0.172062,0.172062,0.985086,109.762,225.52)"> <path d="M7.059,-19.923C9.515,-19.527 12.119,-18.97 14.829,-18.182L7.059,-0.32L-8.84,-17.146L7.059,-19.923Z" style="fill:rgb(0,71,110);fill-rule:nonzero;stroke:rgb(17,72,107);stroke-width:0.01px;"/> </g> <g transform="matrix(1,0,0,1,141.031,206.647)"> <path d="M0,0.461L1.084,0.461C0.625,0.304 0.15,0.145 -0.304,0C-0.304,0 -0.047,0.414 0,0.461Z" style="fill:rgb(0,51,102);fill-rule:nonzero;stroke:rgb(28,55,100);stroke-width:0.01px;"/> </g> <g transform="matrix(1,0,0,1,217.549,372.632)"> <path d="M0,-10.882L51.019,-10.882L51.018,-10.883L38.265,-30.212L12.755,-30.212L12.752,-30.216L12.75,-30.212L-12.755,-30.212L-0.003,-10.883L-0.002,-10.882L-25.512,-10.882L-25.511,-10.882L-25.511,-10.881L-25.51,-10.881L-25.51,-10.88L-12.757,8.45L-6.447,18.014C0.989,18.881 8.56,19.334 16.243,19.334C17.468,19.334 18.687,19.313 19.906,19.291L12.754,8.45L0,-10.882Z" style="fill:rgb(0,51,102);fill-rule:nonzero;stroke:rgb(28,55,100);stroke-width:0.01px;"/> </g> <g transform="matrix(0.552513,-0.833504,-0.833504,-0.552513,117.04,206.417)"> <path d="M-1.416,0.884L2.808,0.884C1.684,2.441 0.718,3.639 0.136,4.334L0.08,4.4L-1.416,0.884Z" style="fill:rgb(0,71,110);fill-rule:nonzero;stroke:rgb(17,72,107);stroke-width:0.01px;"/> </g> <g transform="matrix(0.529999,-0.847998,-0.847998,-0.529999,60.9681,244.486)"> <path d="M0.773,-3.656L0.791,-3.656L2.674,0.457C-1.578,-0.312 -5.741,-1.602 -9.817,-3.395L0.773,-3.656Z" style="fill:rgb(0,51,102);fill-rule:nonzero;stroke:rgb(28,55,100);stroke-width:0.01px;"/> </g> <g transform="matrix(1,0,0,1,77.2433,212.785)"> <path d="M0,90.966L0.015,90.944L12.741,71.63L12.757,71.63L25.501,52.314L25.51,52.3L31.745,42.85C31.275,42.124 32.263,39.169 33.313,37.182C33.927,36.02 34.6,35.117 35.59,33.79C36.091,33.118 36.665,32.418 37.419,31.684L35.13,28.214C34.563,28.357 34.213,28.412 33.318,28.716C33.093,28.792 32.295,29.067 31.261,29.527C28.956,30.552 28.363,31.215 28.101,31.001C28.099,30.999 28.1,30.992 28.097,30.989L28.096,30.989C27.604,30.588 29.145,27.813 30.324,26.027C30.795,25.313 31.339,24.461 32.063,23.566L25.523,13.654L25.498,13.654L25.51,13.635L14.784,-2.625C12.793,-1.649 10.766,-0.526 8.73,0.768C4.825,3.25 1.154,6.211 -2.268,9.688C-2.336,9.757 -2.397,9.828 -2.466,9.898L0,13.635L0.013,13.654L12.755,32.967L12.745,32.984L0,52.3L-0.009,52.314L-12.755,71.633L-12.748,71.644L-12.762,71.644L-13.082,72.129C-9.814,79.559 -6.014,86.725 -1.731,93.591L-0.006,90.974L0,90.966Z" style="fill:rgb(0,51,102);fill-rule:nonzero;stroke:rgb(28,55,100);stroke-width:0.01px;"/> </g> <g transform="matrix(1,0,0,1,268.542,281.046)"> <path d="M0,3.37L0.027,3.37L12.771,-15.946L12.773,-15.946L12.782,-15.96L25.526,-35.277L25.537,-35.293L23.305,-38.674C22.307,-38.203 21.346,-37.766 20.428,-37.361C15.999,-35.41 7.384,-31.657 -3.778,-29.528L-12.73,-15.96L-12.738,-15.946L-25.485,3.373L-25.478,3.384L-25.492,3.384L-38.24,22.706L-38.239,22.707L-38.244,22.714L-38.246,22.714L-50.995,42.038L-50.991,42.044L-25.487,42.044L-25.483,42.038L-12.734,22.714L-12.728,22.706L-12.72,22.692L-12.734,22.671L0,3.37Z" style="fill:rgb(0,51,102);fill-rule:nonzero;stroke:rgb(28,55,100);stroke-width:0.01px;"/> </g> <g transform="matrix(1,0,0,1,90.0021,303.746)"> <path d="M0,19.344L12.751,0.005L-12.754,0L0,19.344Z" style="fill:rgb(0,51,102);fill-rule:nonzero;stroke:rgb(28,55,100);stroke-width:0.01px;"/> </g> <g transform="matrix(1,0,0,1,102.759,323.084)"> <path d="M0,-19.324L12.75,0L25.499,-19.324L0,-19.324Z" style="fill:rgb(0,51,102);fill-rule:nonzero;stroke:rgb(28,55,100);stroke-width:0.01px;"/> </g> <g transform="matrix(1,0,0,1,90.0002,303.759)"> <path d="M0,-19.33L12.748,0L12.745,-0.021L12.753,-0.008L25.501,-19.33L0,-19.33Z" style="fill:rgb(0,51,102);fill-rule:nonzero;stroke:rgb(28,55,100);stroke-width:0.01px;"/> </g> <g transform="matrix(1,0,0,1,204.792,307.279)"> <path d="M0,-42.192L-0.007,-42.179L-0.009,-42.179L-12.755,-22.86L-12.763,-22.849L-12.762,-22.849L-25.508,-3.528L-25.514,-3.519L-25.516,-3.519L-38.265,15.805L-38.262,15.811L-12.758,15.811L-12.754,15.805L-0.005,-3.519L0.007,-3.519L0.001,-3.528L12.749,-22.849L12.762,-22.849L12.755,-22.859L12.756,-22.86L25.503,-42.179L25.519,-42.179L25.51,-42.192L25.511,-42.193L33.507,-54.312C31.596,-54.456 29.279,-54.68 26.598,-55.041C22.538,-55.586 16.914,-56.38 10.43,-58.003L0,-42.193L0,-42.192Z" style="fill:rgb(0,51,102);fill-rule:nonzero;stroke:rgb(28,55,100);stroke-width:0.01px;"/> </g> <g transform="matrix(1,0,0,1,268.586,303.76)"> <path d="M0,19.297L12.731,0L-12.768,0L-12.762,0.01L-12.725,0.01L0,19.297Z" style="fill:rgb(0,51,102);fill-rule:nonzero;stroke:rgb(28,55,100);stroke-width:0.01px;"/> </g> <g transform="matrix(1,0,0,1,281.328,323.084)"> <path d="M0,-19.324L12.75,0L25.499,-19.324L0,-19.324Z" style="fill:rgb(0,51,102);fill-rule:nonzero;stroke:rgb(28,55,100);stroke-width:0.01px;"/> </g> <g transform="matrix(1,0,0,1,268.593,303.751)"> <path d="M0,-19.322L12.725,-0.035L12.716,-0.02L12.729,0L25.477,-19.322L0,-19.322Z" style="fill:rgb(0,51,102);fill-rule:nonzero;stroke:rgb(28,55,100);stroke-width:0.01px;"/> </g> <g transform="matrix(1,0,0,1,404.946,162.498)"> <path d="M0,-7.459C-0.822,-9.452 -1.687,-11.424 -2.584,-13.381L-11.639,-13.381C-12.611,-12.43 -13.446,-11.882 -14.015,-11.495C-15.348,-10.588 -16.589,-9.561 -18.123,-8.166L-8.828,5.922L0,-7.459Z" style="fill:rgb(0,51,102);fill-rule:nonzero;stroke:rgb(28,55,100);stroke-width:0.01px;"/> </g> <g transform="matrix(1,0,0,1,396.135,199.089)"> <path d="M0,-30.641L12.738,-11.334L12.723,-11.311L12.753,-11.311L20.215,0C18.999,-10.525 16.787,-20.766 13.674,-30.641L0,-30.641Z" style="fill:rgb(0,51,102);fill-rule:nonzero;stroke:rgb(28,55,100);stroke-width:0.01px;"/> </g> <g transform="matrix(1,0,0,1,166.529,346.231)"> <path d="M0,15.519L-0.001,15.519L0,15.518L-12.753,-3.811L-12.758,-3.811L-12.755,-3.815L-12.756,-3.816L-12.757,-3.815L-25.508,-23.142L-51.017,-23.142L-38.265,-3.815L-38.267,-3.811L-38.264,-3.811L-25.51,15.518L-25.511,15.519L-25.51,15.519L-18.984,25.411C-8.166,30.865 3.296,35.323 15.268,38.661L12.755,34.851L0,15.519Z" style="fill:rgb(0,51,102);fill-rule:nonzero;stroke:rgb(28,55,100);stroke-width:0.01px;"/> </g> <g transform="matrix(1,0,0,1,294.077,346.696)"> <path d="M0,15.054L-12.753,-4.276L-12.755,-4.279L-25.499,-23.596L-50.974,-23.596L-50.98,-23.606L-51.017,-23.606L-38.265,-4.279L-38.263,-4.276L-38.262,-4.276L-25.508,15.054L-25.508,15.055L-25.509,15.055L-12.755,34.387L-9.935,38.66C-2.774,36.733 4.208,34.403 10.984,31.702L0,15.055L0,15.054Z" style="fill:rgb(0,51,102);fill-rule:nonzero;stroke:rgb(28,55,100);stroke-width:0.01px;"/> </g> <g transform="matrix(1,0,0,1,332.34,349.959)"> <path d="M0,-7.539L0.003,-7.542L-0.015,-7.569L-0.034,-7.542L-12.784,-26.869L-38.259,-26.869L-25.507,-7.542L-25.51,-7.539L-25.506,-7.539L-12.752,11.791L-12.753,11.791L-12.752,11.791L-7.778,19.33C-1.488,15.941 4.567,12.208 10.364,8.162L0.005,-7.539L0,-7.539Z" style="fill:rgb(0,51,102);fill-rule:nonzero;stroke:rgb(28,55,100);stroke-width:0.01px;"/> </g> <g transform="matrix(1,0,0,1,113.417,207.109)"> <path d="M0,-3.19C-3.376,-2.808 -8.4,-1.936 -14.036,0L2.104,0L0,-3.19Z" style="fill:rgb(0,51,102);fill-rule:nonzero;stroke:rgb(28,55,100);stroke-width:0.01px;"/> </g> <g transform="matrix(1,0,0,1,141.003,203.382)"> <path d="M-25.48,3.726L0.028,3.726L0.014,3.704L-0.276,3.265C-9.592,0.302 -17.978,0 -23.148,0.205L-25.48,3.726Z" style="fill:rgb(0,51,102);fill-rule:nonzero;stroke:rgb(28,55,100);stroke-width:0.01px;"/> </g> <g transform="matrix(1,0,0,1,356.693,187.778)"> <path d="M0,-1.78L1.175,0L-2.328,0L0,-1.78Z" style="fill:rgb(70,95,134);fill-rule:nonzero;stroke:rgb(44,74,118);stroke-width:0.01px;"/> </g> <g transform="matrix(1,0,0,1,87.3627,335.173)"> <path d="M0,-12.083L2.639,-12.083L10.611,0C8.481,-2.208 6.31,-4.576 4.126,-7.111C2.679,-8.789 1.304,-10.449 0,-12.083Z" style="fill:rgb(0,51,102);fill-rule:nonzero;stroke:rgb(28,55,100);stroke-width:0.01px;"/> </g> <g transform="matrix(1,0,0,1,133.927,254.917)"> <path d="M0,1.585L0.002,1.581C-0.016,1.428 -0.033,1.276 -0.076,1.109C-0.152,0.808 -0.262,0.379 -0.446,0C-0.266,0.376 -0.157,0.799 -0.082,1.096C-0.037,1.269 -0.019,1.427 0,1.585Z" style="fill:rgb(44,74,118);fill-rule:nonzero;stroke:rgb(44,74,118);stroke-width:0.01px;"/> </g> <g transform="matrix(1,0,0,1,121.355,260.958)"> <path d="M0,-7.894C-0.337,-7.118 -0.535,-6.473 -1.091,-3.91C-2.008,0.314 -2.513,2.677 -2.324,3.307C-2.5,2.654 -1.995,0.293 -1.085,-3.897C-0.529,-6.461 -0.332,-7.106 0.006,-7.882C0.867,-9.862 1.798,-10.761 1.475,-11.199C1.475,-11.2 1.474,-11.2 1.473,-11.201C1.776,-10.76 0.855,-9.861 0,-7.894" style="fill:rgb(44,74,118);fill-rule:nonzero;"/> </g> <g transform="matrix(1,0,0,1,121.355,260.958)"> <path d="M0,-7.894C-0.337,-7.118 -0.535,-6.473 -1.091,-3.91C-2.008,0.314 -2.513,2.677 -2.324,3.307C-2.5,2.654 -1.995,0.293 -1.085,-3.897C-0.529,-6.461 -0.332,-7.106 0.006,-7.882C0.867,-9.862 1.798,-10.761 1.475,-11.199C1.475,-11.2 1.474,-11.2 1.473,-11.201C1.776,-10.76 0.855,-9.861 0,-7.894Z" style="fill:none;fill-rule:nonzero;stroke:rgb(44,74,118);stroke-width:0.01px;"/> </g> <g transform="matrix(1,0,0,1,109.094,255.609)"> <path d="M0,0.134C-0.036,0.1 -0.06,0.046 -0.088,0L-0.106,0.027C-0.077,0.072 -0.041,0.107 0,0.134" style="fill:rgb(44,74,118);fill-rule:nonzero;"/> </g> <g transform="matrix(1,0,0,1,109.094,255.609)"> <path d="M0,0.134C-0.036,0.1 -0.06,0.046 -0.088,0L-0.106,0.027C-0.077,0.072 -0.041,0.107 0,0.134Z" style="fill:none;fill-rule:nonzero;stroke:rgb(44,74,118);stroke-width:0.01px;"/> </g> <g transform="matrix(1,0,0,1,150.106,211.392)"> <path d="M0,9.469L0.006,9.478C0.276,8.11 0.48,6.788 0.951,4.09C1.112,3.165 1.363,1.747 1.686,-0.005C1.684,-0.006 1.681,-0.008 1.679,-0.009C1.356,1.739 1.106,3.154 0.945,4.077C0.474,6.777 0.271,8.1 0,9.469Z" style="fill:rgb(44,74,118);fill-rule:nonzero;stroke:rgb(44,74,118);stroke-width:0.01px;"/> </g> <g transform="matrix(1,0,0,1,119.692,233)"> <path d="M0,-3.267C-6.44,-0.402 -8.089,1.016 -8.673,1.54C-9.348,2.146 -9.906,2.758 -10.386,3.351L-10.371,3.373C-9.89,2.776 -9.348,2.163 -8.667,1.552C-8.083,1.028 -6.435,-0.39 0.006,-3.255C2.343,-4.294 4.926,-5.431 8.539,-6.627L8.53,-6.64C4.916,-5.443 2.338,-4.307 0,-3.267" style="fill:rgb(44,74,118);fill-rule:nonzero;"/> </g> <g transform="matrix(1,0,0,1,119.692,233)"> <path d="M0,-3.267C-6.44,-0.402 -8.089,1.016 -8.673,1.54C-9.348,2.146 -9.906,2.758 -10.386,3.351L-10.371,3.373C-9.89,2.776 -9.348,2.163 -8.667,1.552C-8.083,1.028 -6.435,-0.39 0.006,-3.255C2.343,-4.294 4.926,-5.431 8.539,-6.627L8.53,-6.64C4.916,-5.443 2.338,-4.307 0,-3.267Z" style="fill:none;fill-rule:nonzero;stroke:rgb(44,74,118);stroke-width:0.01px;"/> </g> <g transform="matrix(1,0,0,1,300.016,238.105)"> <path d="M0,0.015C0.009,0.01 0.018,0.005 0.027,0C0.018,0.005 0.009,0.01 0,0.015" style="fill:rgb(44,74,118);fill-rule:nonzero;"/> </g> <g transform="matrix(1,0,0,1,300.016,238.105)"> <path d="M0,0.015C0.009,0.01 0.018,0.005 0.027,0C0.018,0.005 0.009,0.01 0,0.015Z" style="fill:none;fill-rule:nonzero;stroke:rgb(44,74,118);stroke-width:0.01px;"/> </g> <g transform="matrix(1,0,0,1,301.216,236.749)"> <path d="M0,0.677C0.38,0.456 0.763,0.23 1.148,0C0.762,0.231 0.381,0.455 0,0.677Z" style="fill:rgb(44,74,118);fill-rule:nonzero;stroke:rgb(44,74,118);stroke-width:0.01px;"/> </g> <g transform="matrix(1,0,0,1,303.15,231.697)"> <path d="M0,4.58C2.26,3.209 4.603,1.686 7.002,0C4.603,1.686 2.261,3.205 0,4.58Z" style="fill:rgb(44,74,118);fill-rule:nonzero;stroke:rgb(44,74,118);stroke-width:0.01px;"/> </g> <g transform="matrix(-0.825631,0.56421,0.56421,0.825631,376.81,231.294)"> <path d="M1.452,-4.7C1.507,-4.149 1.375,-3.365 1.343,-2.286C1.323,-1.633 1.294,-0.655 1.452,0.449C1.292,-0.66 1.322,-1.644 1.341,-2.299C1.373,-3.369 1.503,-4.149 1.452,-4.7Z" style="fill:rgb(44,74,118);fill-rule:nonzero;stroke:rgb(44,74,118);stroke-width:0.01px;"/> </g> <g transform="matrix(1,0,0,1,383.813,228.727)"> <path d="M0,-1.624C0.234,-1.071 0.432,-0.53 0.606,0C0.439,-0.51 0.263,-1.028 0.042,-1.56L0,-1.624Z" style="fill:rgb(44,74,118);fill-rule:nonzero;stroke:rgb(44,74,118);stroke-width:0.01px;"/> </g> <g transform="matrix(1,0,0,1,264.083,251.632)"> <path d="M0,0.006C0.012,0.004 0.024,0.002 0.036,0C0.024,0.002 0.012,0.004 0,0.006" style="fill:rgb(44,74,118);fill-rule:nonzero;"/> </g> <g transform="matrix(1,0,0,1,264.083,251.632)"> <path d="M0,0.006C0.012,0.004 0.024,0.002 0.036,0C0.024,0.002 0.012,0.004 0,0.006Z" style="fill:none;fill-rule:nonzero;stroke:rgb(44,74,118);stroke-width:0.01px;"/> </g> <g transform="matrix(1,0,0,1,58.1182,259.621)"> <path d="M0,0.085C0.002,0.057 0.003,0.028 0.004,0C0.003,0.028 0.002,0.057 0,0.085" style="fill:rgb(44,74,118);fill-rule:nonzero;"/> </g> <g transform="matrix(1,0,0,1,58.1182,259.621)"> <path d="M0,0.085C0.002,0.057 0.003,0.028 0.004,0C0.003,0.028 0.002,0.057 0,0.085Z" style="fill:none;fill-rule:nonzero;stroke:rgb(44,74,118);stroke-width:0.01px;"/> </g> <g transform="matrix(1,0,0,1,58.0109,262.19)"> <path d="M0,0.377C0.002,0.252 -0.001,0.125 0.001,0C-0.001,0.125 0.002,0.252 0,0.377Z" style="fill:rgb(44,74,118);fill-rule:nonzero;stroke:rgb(44,74,118);stroke-width:0.01px;"/> </g> <g transform="matrix(1,0,0,1,192.039,361.751)"> <path d="M0,0.001L-0.001,0L-0.001,0.001L0,0.001Z" style="fill:rgb(44,74,118);fill-rule:nonzero;stroke:rgb(44,74,118);stroke-width:0.01px;"/> </g> <g transform="matrix(1,0,0,1,319.58,303.751)"> <path d="M0,-19.322L-25.495,-19.322L-12.748,0L0,-19.322Z" style="fill:rgb(44,74,118);fill-rule:nonzero;stroke:rgb(44,74,118);stroke-width:0.01px;"/> </g> <g transform="matrix(1,0,0,1,52.0951,46.6676)"> <path d="M0,157.485C1.356,156.025 2.323,155.653 2.218,155.149C2.063,154.409 -0.132,154.704 -0.364,153.898C-0.582,153.137 1.156,151.851 2.424,151.186C3.987,150.366 5.006,150.402 6.245,149.204C6.456,148.999 7.194,148.285 7.009,147.885C6.844,147.53 6.097,147.76 4.863,147.438C4.141,147.25 3.142,146.99 3.044,146.492C2.899,145.753 4.756,144.608 6.346,144.03C8.272,143.332 9.046,143.745 10.395,142.804C11.224,142.224 12.092,141.285 11.879,140.759C11.704,140.329 10.929,140.479 9.652,139.711C9.115,139.388 8.846,139.227 8.826,138.981C8.771,138.304 10.605,137.461 12.233,137.103C14.365,136.635 15.075,137.236 16.871,136.533C17.551,136.267 18.769,135.79 18.848,135.011C18.971,133.791 16.172,133.054 16.329,132.078C16.453,131.313 18.337,130.775 19.839,130.808C21.528,130.846 22.143,131.444 23.617,131.081C23.866,131.02 25.346,130.656 25.449,129.906C25.595,128.842 22.819,128.086 22.971,127.298C23.106,126.598 25.535,125.978 27.72,126.568C29.018,126.918 29.65,127.538 30.818,127.298C30.888,127.284 32.297,126.978 32.47,126.151C32.691,125.1 30.69,124.279 30.921,123.543C31.123,122.9 32.914,122.689 34.431,123.021C36.235,123.416 36.487,124.321 38.046,124.377C39.221,124.42 40.517,123.957 40.627,123.334C40.655,123.179 40.606,123.03 39.801,121.874C39.057,120.806 38.954,120.723 38.998,120.585C39.194,119.98 41.786,119.787 43.828,120.726C44.029,120.819 44.992,121.275 46.305,121.77C46.853,121.976 47.104,122.054 47.441,122.083C48.274,122.154 49.487,121.918 49.713,121.248C49.748,121.147 49.802,120.907 49.093,119.579C48.436,118.347 48.168,118.138 48.268,117.91C48.495,117.391 50.361,117.402 51.985,118.119C53.486,118.782 53.705,119.584 55.804,120.518C56.258,120.72 56.882,120.963 57.677,120.921C58.042,120.902 59.113,120.851 59.449,120.188C59.623,119.845 59.496,119.315 59.236,118.268C58.996,117.299 58.877,117.203 58.966,117.041C59.318,116.401 61.857,116.608 63.849,117.89C65.124,118.711 65.34,119.432 66.792,119.904C67.254,120.054 68.098,120.317 68.545,119.904C68.925,119.553 68.868,118.857 68.819,118.253C68.731,117.178 68.369,116.88 68.545,116.632C68.91,116.122 71.077,116.52 72.594,117.859C73.487,118.647 73.607,119.278 74.752,119.904C74.997,120.037 75.633,120.359 76.506,120.449C77.056,120.505 78.155,120.619 78.53,120.04C78.73,119.731 78.615,119.286 78.395,118.404C78.221,117.704 78.085,117.581 78.106,117.18C78.129,116.771 78.307,116.201 78.665,115.951C79.656,115.256 81.955,117.062 82.237,117.284C84.044,118.703 84.105,119.758 85.815,120.585C86.178,120.761 87.484,121.336 88.11,120.858C88.153,120.825 88.19,120.79 88.224,120.75C88.626,120.271 88.642,119.664 88.649,119.222C88.672,117.956 88.683,117.322 88.948,117.076C89.365,116.688 90.311,116.966 90.91,117.284C92.845,118.313 94.226,121.405 94.99,121.948C95.087,122.017 95.485,122.296 96.069,122.494C96.669,122.696 97.335,122.912 97.823,122.63C98.47,122.256 98.517,121.174 98.55,120.413C98.606,119.139 98.246,118.586 98.55,118.327C99.015,117.932 100.338,118.806 100.719,119.057C101.256,119.413 102.182,120.125 103.094,121.457C104.001,122.783 103.887,123.25 104.705,123.857C104.971,124.053 105.843,124.702 106.728,124.402C107.322,124.2 107.634,123.656 107.673,123.584C108.295,122.417 107.21,121.127 107.636,120.726C108.013,120.373 109.397,120.872 110.321,121.874C111.574,123.232 111.053,124.507 112.386,125.629C112.905,126.066 113.79,126.551 114.245,126.255C114.462,126.113 114.531,125.825 114.76,123.647C114.854,122.76 114.875,122.5 115.07,122.395C115.583,122.122 116.672,123.26 116.982,123.584C118.645,125.321 118.519,126.395 119.681,127.673C120.169,128.209 120.48,128.308 123.054,129.445C126.052,130.77 127.551,131.433 128.515,131.913C131.288,133.297 134.394,135.168 135.344,134.537C135.632,134.346 136.134,133.846 137.107,133.429C137.644,133.198 138.112,133.004 138.363,133.208C138.808,133.572 138.129,134.842 138.69,135.305C138.736,135.342 138.837,135.426 138.97,135.423C139.32,135.416 139.399,134.828 139.893,134.367C140.245,134.038 140.85,133.734 141.149,133.926C141.397,134.085 141.236,134.459 141.476,135.25C141.56,135.527 141.77,136.211 142.071,136.23C142.334,136.247 142.423,135.743 142.87,135.233C143.462,134.557 144.493,134.088 144.863,134.367C145.381,134.759 144.31,136.404 144.917,136.946C145.292,137.282 146.136,137.042 146.63,136.705C147.071,136.404 147.035,136.159 147.569,135.613C147.871,135.305 148.633,134.527 149.069,134.698C149.76,134.971 148.994,137.384 149.872,137.844C150.366,138.104 151.108,137.599 151.235,137.512C152.278,136.802 152.175,135.545 153.001,135.36C153.056,135.348 153.41,135.275 153.657,135.471C154.048,135.782 153.739,136.429 154.007,137.417C154.08,137.682 154.309,138.528 154.665,138.557C155.317,138.609 155.773,135.876 156.606,135.912C156.762,135.919 156.868,136.02 156.988,136.133C157.906,136.999 157.04,138.861 157.72,139.221C157.753,139.238 157.844,139.285 157.955,139.269C158.27,139.222 158.397,138.715 158.755,137.702C159.143,136.599 159.308,136.305 159.611,136.188C159.671,136.165 159.946,136.058 160.157,136.188C160.278,136.263 160.47,136.474 160.493,138.414C160.496,138.782 160.493,139.08 160.703,139.278C160.965,139.527 161.381,139.45 161.413,139.444C161.747,139.377 161.991,139.126 162.292,138.662C163.122,137.383 163.091,136.485 163.707,136.299C163.788,136.274 163.967,136.22 164.144,136.299C165.036,136.696 164.15,139.736 164.851,140.013C165.166,140.138 165.63,139.638 165.709,139.554C166.341,138.874 166.178,137.963 166.82,136.74C166.9,136.586 167.035,136.349 167.202,136.354C167.407,136.359 167.551,136.727 167.64,136.961C167.758,137.272 167.893,137.76 167.913,138.671C167.925,139.228 167.884,139.498 168.076,139.83C168.152,139.959 168.296,140.208 168.495,140.218C168.662,140.226 168.872,140.064 169.481,138.737C169.923,137.772 170.104,137.282 170.62,136.843C170.772,136.714 170.984,136.539 171.172,136.6C171.401,136.674 171.437,137.042 171.57,137.611C171.71,138.215 171.95,139.25 172.206,139.259C172.442,139.267 172.704,138.408 172.865,137.882C173.06,137.242 173.1,136.84 173.381,136.743C173.541,136.687 173.728,136.748 173.851,136.838C174.193,137.085 174.052,137.559 174.274,138.499C174.356,138.843 174.473,139.338 174.609,139.338C174.919,139.337 174.889,136.771 175.559,136.651C175.846,136.6 176.145,137.023 176.247,137.17C176.96,138.184 176.459,139.552 176.778,139.646C176.894,139.68 177.038,139.521 177.188,139.354C177.529,138.974 177.626,138.54 177.658,138.404C177.885,137.45 178.428,136.347 178.668,136.383C178.79,136.401 178.838,136.715 178.92,137.252C179.061,138.168 178.976,138.715 179.303,138.927C179.335,138.948 179.406,138.992 179.499,138.99C179.6,138.988 179.74,138.874 180.06,138.366C180.75,137.271 180.971,136.738 181.593,136.489C181.854,136.384 182.034,136.312 182.204,136.394C182.892,136.726 182.034,138.903 183.049,139.67C183.182,139.77 183.333,139.885 183.519,139.86C184.352,139.749 184.091,137.072 185.446,136.441C185.763,136.294 186.256,136.217 186.518,136.447C186.839,136.729 186.596,137.284 186.708,138.75C186.764,139.477 186.856,139.769 187.091,139.955C187.316,140.133 187.658,140.205 187.937,140.097C188.33,139.945 188.454,139.486 188.689,138.72C189.421,136.33 189.658,136.095 189.864,136.062C190.186,136.01 190.497,136.439 190.569,136.536C190.67,136.677 190.941,137.106 190.803,138.863C190.742,139.649 190.661,139.905 190.851,140.097C191.112,140.361 191.663,140.283 192.026,140.093C192.188,140.008 192.522,139.791 192.86,138.986C193.437,137.611 193.093,136.739 193.812,136.014C194.059,135.764 194.195,135.772 194.235,135.777C194.673,135.83 195.1,136.977 194.974,138.028C194.87,138.898 194.43,139.356 194.685,139.709C194.826,139.904 195.145,140.02 195.409,139.955C196.511,139.682 196.182,136.363 197.194,136.157C197.553,136.084 197.899,136.439 197.947,136.489C198.393,136.948 198.145,137.567 198.416,139.1C198.529,139.739 198.643,140.029 198.886,140.145C199.121,140.256 199.448,140.192 199.653,140.042C200.59,139.354 199.257,136.64 199.967,136.204C200.321,135.987 201.031,136.428 201.424,136.821C202.548,137.946 202.268,139.874 202.975,140.05C203.009,140.058 203.081,140.075 203.162,140.05C203.486,139.947 203.514,139.298 203.612,138.558C203.779,137.305 203.89,136.536 204.372,136.255C204.606,136.118 204.951,136.084 205.231,136.204C206.49,136.745 205.746,140.123 206.841,140.477C207.036,140.54 207.278,140.504 207.439,140.382C208.261,139.759 206.794,136.993 207.439,136.584C207.655,136.447 208.006,136.638 208.361,136.831C208.913,137.131 209.084,137.469 209.69,138.174C210.669,139.312 211.042,139.462 211.21,139.517C211.678,139.672 212.462,139.715 212.73,139.326C213.237,138.587 211.493,136.853 211.903,136.394C212.153,136.114 213.043,136.484 213.5,136.742C214.449,137.279 214.543,137.902 215.481,138.327C215.712,138.433 215.988,138.522 216.611,138.596C217.833,138.743 219.572,138.951 221.247,138.312C223.122,137.598 222.62,139.146 224.759,138.063C226.457,137.204 227.065,137.621 228.694,136.644C229.741,136.015 229.697,135.717 231.082,134.514C232.588,133.205 233.03,133.219 236.14,131.108C239.514,128.817 239.52,128.445 239.475,128.359C239.337,128.097 237.904,129.102 236.531,128.535C235.403,128.07 234.594,126.659 234.936,125.953C235.154,125.502 235.721,125.587 237.246,125.281C238.715,124.985 240.611,124.582 241.869,123.246C242.324,122.763 242.913,121.928 242.688,121.602C242.459,121.269 241.495,121.636 240.197,122.021C238.721,122.46 235.058,123.549 234.755,122.974C234.499,122.486 236.403,120.301 238.906,119.514C239.575,119.304 240.493,119.128 241.858,118.498C243.366,117.803 243.692,117.349 243.684,116.989C243.678,116.746 243.513,116.567 243.435,116.485C242.757,115.775 241.429,116.141 239.035,116.485C236.973,116.782 235.947,116.977 235.797,116.653C235.707,116.457 235.924,116.179 236.104,115.949C236.736,115.139 237.566,114.901 238.703,114.472C238.703,114.472 239.889,114.024 240.923,113.535C241.632,113.199 243.723,112.209 243.603,111.783C243.486,111.371 241.327,111.625 239.978,111.783C237.589,112.064 236.084,112.667 235.881,112.261C235.823,112.146 235.879,111.97 236.208,111.545C237.285,110.16 238.649,109.518 238.803,109.448C240.765,108.552 241.6,108.422 243.568,107.655C245.065,107.071 246.997,106.318 246.911,105.893C246.822,105.443 244.453,105.495 243.369,105.568C241.764,105.677 240.608,105.992 238.803,105.673C238.168,105.561 237.695,105.473 237.661,105.254C237.57,104.667 240.658,103.371 243.674,102.718C245.044,102.421 248.162,101.898 249.053,100.658C249.138,100.539 249.215,100.402 249.178,100.271C249.011,99.678 246.709,99.807 245.31,99.972C241.999,100.362 239.7,101.762 239.284,101.136C239.224,101.046 239.198,100.907 239.284,100.633C239.947,98.51 244.683,96.616 248.912,95.827C249.93,95.637 251.981,95.313 252.041,94.619C252.053,94.48 251.982,94.358 251.904,94.258C250.752,92.778 246.087,92.736 245.966,91.883C245.954,91.798 245.972,91.596 246.587,91.204C247.92,90.354 249.292,90.38 251.482,90.45C254.81,90.557 255.532,90.616 256.682,90.291C257.652,90.017 258.401,89.626 258.888,89.335C258.441,89.146 257.689,88.829 256.752,88.439C254.151,87.358 253.227,87.01 253.228,86.485C253.229,86.156 253.587,85.904 253.955,85.647C254.743,85.095 255.581,85.04 256.031,85.017C258.298,84.906 259.006,85.226 260.936,85.136C261.932,85.09 262.7,84.96 263.173,84.878C264.412,84.665 265.5,84.358 266.42,84.035C265.989,83.712 265.608,83.498 265.34,83.363C263.595,82.478 262.45,82.788 260.598,81.767C260.052,81.466 259.778,81.311 259.776,81.087C259.766,80.266 263.204,79.443 265.81,79.285C268.278,79.136 270.318,79.522 271.663,79.877C273.563,78.596 275.253,77.806 276.478,77.315C279.627,76.053 282.516,75.659 286.607,75.05C287.974,74.847 288.931,74.748 289.264,74.715C291.759,74.466 293.777,74.45 297.483,74.547C300.785,74.633 302.787,74.686 305.868,74.883C315.147,75.475 319.719,76.453 321.174,76.782C322.048,76.979 322.677,77.15 323.303,77.315C332.123,79.644 337.65,83.003 339.16,83.941C339.634,84.236 340.335,84.685 341.164,85.256L341.164,85.255C340.149,83.581 339.099,81.928 338.028,80.289C337.834,79.991 337.637,79.695 337.441,79.398C336.381,77.798 335.303,76.211 334.19,74.647C334.185,74.639 334.18,74.632 334.175,74.624C333.032,73.019 331.856,71.436 330.659,69.869C330.458,69.606 330.255,69.344 330.053,69.082C328.867,67.548 327.663,66.028 326.426,64.533C326.426,64.532 326.425,64.532 326.425,64.532C325.155,62.996 323.853,61.485 322.53,59.992C322.331,59.768 322.131,59.545 321.931,59.322C319.285,56.365 316.538,53.491 313.692,50.709C313.495,50.516 313.297,50.325 313.099,50.133C311.68,48.759 310.242,47.401 308.776,46.071C308.775,46.07 308.774,46.069 308.772,46.068C305.984,43.571 302.97,41.024 299.693,38.452C294.642,34.487 285.188,27.481 272.202,20.503C261.428,14.712 250.117,9.966 238.268,6.258C233.055,4.627 227.804,3.24 222.519,2.07C220.944,1.732 219.36,1.415 217.77,1.115C217.527,1.07 217.283,1.028 217.039,0.983C215.694,0.735 214.344,0.499 212.988,0.279C212.613,0.218 212.235,0.16 211.859,0.102C210.634,-0.09 209.405,-0.271 208.172,-0.44C207.711,-0.503 207.248,-0.563 206.786,-0.623C205.634,-0.772 204.478,-0.911 203.319,-1.039C202.797,-1.097 202.276,-1.155 201.753,-1.209C200.644,-1.323 199.531,-1.424 198.416,-1.52C197.856,-1.568 197.298,-1.618 196.738,-1.661C195.637,-1.746 194.532,-1.815 193.426,-1.881C192.86,-1.915 192.296,-1.954 191.729,-1.983C190.566,-2.042 189.398,-2.084 188.229,-2.123C187.724,-2.139 187.222,-2.164 186.716,-2.177C185.048,-2.22 183.376,-2.244 181.698,-2.244C180.145,-2.244 178.597,-2.225 177.053,-2.188C176.535,-2.176 176.019,-2.151 175.501,-2.135C174.478,-2.103 173.455,-2.072 172.437,-2.025C171.819,-1.996 171.205,-1.953 170.589,-1.918C169.675,-1.867 168.761,-1.818 167.851,-1.754C167.192,-1.708 166.538,-1.649 165.881,-1.596C165.019,-1.526 164.156,-1.459 163.297,-1.378C162.619,-1.315 161.945,-1.239 161.269,-1.168C160.436,-1.081 159.602,-0.996 158.773,-0.898C158.085,-0.817 157.401,-0.725 156.716,-0.637C155.905,-0.533 155.093,-0.43 154.286,-0.316C153.59,-0.217 152.898,-0.109 152.206,-0.003C151.414,0.118 150.623,0.238 149.835,0.368C149.136,0.484 148.439,0.609 147.742,0.732C146.967,0.869 146.191,1.007 145.419,1.153C144.718,1.286 144.021,1.426 143.323,1.567C142.562,1.72 141.802,1.874 141.045,2.036C140.342,2.186 139.642,2.343 138.943,2.5C138.197,2.669 137.452,2.839 136.71,3.016C136.007,3.183 135.308,3.356 134.609,3.531C133.875,3.714 133.143,3.901 132.414,4.093C131.714,4.277 131.016,4.465 130.32,4.657C129.599,4.855 128.88,5.058 128.163,5.264C127.463,5.465 126.766,5.67 126.07,5.879C125.366,6.091 124.663,6.307 123.962,6.526C123.26,6.746 122.56,6.968 121.861,7.196C121.176,7.419 120.493,7.648 119.811,7.879C119.107,8.118 118.404,8.357 117.705,8.603C117.035,8.839 116.369,9.081 115.703,9.323C114.999,9.58 114.295,9.837 113.595,10.102C112.946,10.347 112.3,10.6 111.653,10.852C110.945,11.129 110.236,11.406 109.531,11.691C108.905,11.945 108.284,12.206 107.661,12.465C106.947,12.764 106.231,13.061 105.522,13.367C104.92,13.627 104.324,13.895 103.726,14.16C103.003,14.482 102.279,14.801 101.561,15.131C100.993,15.392 100.43,15.662 99.865,15.929C99.127,16.277 98.387,16.623 97.655,16.98C97.132,17.235 96.616,17.499 96.096,17.759C95.328,18.142 94.559,18.523 93.797,18.916C93.354,19.146 92.916,19.384 92.474,19.616C91.647,20.052 90.818,20.486 89.999,20.934C89.699,21.098 89.404,21.269 89.105,21.434C83.428,24.576 77.944,27.995 72.677,31.678C72.51,31.794 72.34,31.908 72.174,32.025C71.265,32.665 70.368,33.317 69.472,33.972C69.235,34.145 68.994,34.315 68.758,34.49C67.898,35.125 67.05,35.771 66.203,36.42C65.938,36.623 65.671,36.822 65.408,37.026C64.585,37.664 63.772,38.312 62.961,38.963C62.682,39.187 62.399,39.409 62.121,39.635C61.324,40.282 60.536,40.94 59.751,41.6C59.47,41.837 59.187,42.071 58.907,42.308C58.129,42.971 57.36,43.642 56.595,44.316C56.317,44.561 56.037,44.804 55.761,45.05C54.999,45.73 54.245,46.418 53.495,47.11C53.226,47.358 52.956,47.605 52.689,47.855C51.939,48.555 51.197,49.264 50.459,49.976C50.203,50.224 49.946,50.471 49.691,50.721C48.95,51.445 48.218,52.176 47.491,52.912C47.25,53.156 47.009,53.4 46.769,53.645C46.037,54.396 45.312,55.152 44.593,55.915C44.369,56.152 44.146,56.39 43.923,56.629C43.198,57.407 42.479,58.191 41.769,58.982C41.564,59.208 41.361,59.436 41.159,59.664C40.436,60.475 39.721,61.292 39.015,62.116C38.836,62.325 38.659,62.534 38.481,62.743C37.759,63.593 37.043,64.449 36.337,65.313C36.187,65.497 36.038,65.682 35.889,65.866C35.164,66.761 34.446,67.66 33.74,68.568C33.621,68.72 33.504,68.874 33.386,69.027C32.655,69.972 31.932,70.923 31.221,71.882C31.14,71.991 31.062,72.1 30.982,72.208C30.238,73.217 29.503,74.233 28.781,75.257C28.75,75.301 28.72,75.345 28.689,75.389C16.189,93.165 7.056,113.243 2.153,134.809C2.15,134.819 2.148,134.83 2.145,134.841C1.843,136.169 1.558,137.503 1.289,138.843C1.282,138.875 1.276,138.908 1.269,138.94C1.003,140.267 0.753,141.599 0.519,142.937C0.512,142.978 0.505,143.019 0.497,143.061C0.265,144.393 0.049,145.73 -0.15,147.072C-0.157,147.117 -0.164,147.163 -0.171,147.209C-0.369,148.552 -0.552,149.9 -0.719,151.253C-0.723,151.293 -0.728,151.332 -0.733,151.371C-0.899,152.734 -1.049,154.101 -1.182,155.473C-1.185,155.498 -1.187,155.523 -1.189,155.547C-1.323,156.936 -1.44,158.33 -1.539,159.728L-1.539,159.729C-1.453,159.054 -0.469,157.989 0,157.485" style="fill:rgb(0,173,131);fill-rule:nonzero;"/> </g> <g transform="matrix(1,0,0,1,58.0019,126.59)"> <path d="M0,138.23C-0.014,137.472 -0.002,136.724 0.009,135.977C0.011,135.852 0.008,135.725 0.011,135.6C0.028,134.764 0.067,133.938 0.116,133.115C0.118,133.087 0.119,133.058 0.121,133.03C0.992,118.703 6.665,106.339 16.968,95.871C20.389,92.393 24.06,89.432 27.966,86.95C38.902,79.999 49.606,77.964 55.495,77.306C59.512,76.857 74.853,75.522 90.873,83.276C92.116,83.878 93.119,84.416 93.784,84.784C93.784,84.787 93.783,84.79 93.783,84.793C93.785,84.794 93.788,84.795 93.79,84.797C93.467,86.549 93.216,87.966 93.055,88.891C92.584,91.589 92.38,92.912 92.11,94.28C92.028,94.695 91.941,95.113 91.837,95.576C91.464,97.237 91.095,98.559 90.861,99.355C90.257,98.994 89.358,98.511 88.211,98.095C87.439,97.816 84.18,96.704 78.027,97.675C75.335,98.1 73.516,98.699 70.378,99.73C70.325,99.748 70.282,99.765 70.229,99.782C66.616,100.979 64.033,102.116 61.696,103.155C55.256,106.02 53.607,107.438 53.023,107.962C52.342,108.573 51.8,109.185 51.319,109.783C50.599,110.673 50.039,111.524 49.571,112.234C48.399,114.009 46.873,116.757 47.338,117.184C47.601,117.395 48.195,116.733 50.497,115.709C51.531,115.249 52.329,114.974 52.554,114.898C53.454,114.593 53.796,114.542 54.368,114.397C54.593,114.34 54.854,114.268 55.199,114.161C55.774,113.981 56.62,113.645 58.285,112.981C60.353,112.156 60.684,111.996 60.855,112.17C60.858,112.173 60.858,112.179 60.86,112.182L60.861,112.182C61.279,112.605 60.178,114.432 59.272,115.55C58.38,116.65 57.429,117.365 56.758,117.8C56.756,117.802 56.752,117.805 56.75,117.807C56.719,117.836 56.699,117.863 56.669,117.892C55.916,118.626 55.338,119.326 54.837,119.998C53.848,121.324 53.174,122.227 52.56,123.389C51.514,125.367 50.55,128.275 51.004,129.018C51.032,129.065 51.056,129.118 51.092,129.152C51.095,129.154 51.097,129.158 51.1,129.16C51.616,129.48 52.481,127.992 55.272,126.326C56.668,125.492 58.113,124.984 61.003,123.966C64.176,122.849 64.657,122.93 64.823,123.155C64.825,123.159 64.824,123.163 64.827,123.166C64.827,123.167 64.828,123.167 64.829,123.168C65.151,123.606 64.22,124.505 63.359,126.486C63.022,127.261 62.824,127.906 62.268,130.47C61.358,134.66 60.853,137.022 61.029,137.674C61.055,137.759 61.091,137.817 61.143,137.839C61.729,138.085 62.735,135.097 66.317,133.163C67.204,132.685 67.14,132.868 68.129,132.372C72.251,130.299 73.312,127.124 74.668,127.505C75.04,127.61 75.296,127.944 75.479,128.326C75.662,128.705 75.772,129.134 75.849,129.435C75.892,129.602 75.908,129.754 75.927,129.908C75.928,129.916 75.927,129.924 75.928,129.932C75.945,130.084 75.95,130.233 75.947,130.378C75.946,130.426 75.947,130.477 75.944,130.525C75.935,130.656 75.919,130.789 75.897,130.918C75.886,130.982 75.875,131.048 75.861,131.112C75.836,131.228 75.808,131.349 75.774,131.469C75.745,131.572 75.712,131.683 75.678,131.792C75.655,131.864 75.632,131.94 75.607,132.015C75.323,132.88 74.918,133.944 74.6,135.628C74.26,137.427 74.514,137.355 74.159,138.651C73.412,141.384 72.054,142.562 72.393,142.989C72.87,143.526 75.517,141.986 76.872,141.071C78.096,140.245 79.006,139.428 79.591,138.86C79.898,138.667 80.375,138.348 80.913,137.901C82.501,136.581 83.716,134.962 86.132,129.984C86.681,128.851 87.409,127.305 88.223,125.436C88.897,125.675 89.95,126.031 91.256,126.394C92.464,126.729 98.175,128.17 105.96,127.98C107.579,127.941 109.163,127.721 110.757,127.419C114.457,126.718 117.336,124.827 119.375,121.681C120.194,120.418 120.905,119.079 121.59,117.736C122.946,115.082 123.68,113.74 124.447,111.926C125.03,110.548 125.453,109.384 125.728,108.582C126.278,108.967 127.304,109.676 128.613,110.518C146.144,121.792 163.962,124.369 173.382,125.635C178.933,126.381 182.958,126.553 184.933,126.609C190.293,126.762 195.653,126.499 201.032,125.826C202.765,125.609 204.449,125.346 206.081,125.047C206.093,125.045 206.105,125.043 206.117,125.041C217.594,122.936 226.448,119.07 230.963,117.081C234.187,115.661 237.931,113.845 242.014,111.53C242.023,111.525 242.031,111.52 242.04,111.515C242.427,111.295 242.821,111.064 243.214,110.836C243.595,110.614 243.977,110.39 244.362,110.159C244.623,110.004 244.885,109.847 245.148,109.687C247.409,108.312 249.751,106.792 252.151,105.107C252.247,105.039 252.344,104.972 252.44,104.903C252.841,104.621 253.243,104.333 253.645,104.043C254.101,103.712 254.557,103.38 255.017,103.038C255.069,102.999 255.122,102.961 255.174,102.921C256.477,101.947 257.792,100.925 259.115,99.851C261.133,102.289 262.97,104.181 264.346,105.516C267.968,109.027 269.951,111.02 273.116,111.843C275.037,112.342 276.945,112.529 278.864,112.209C280.201,111.986 281.412,111.737 282.633,111.418C288.294,109.942 292.198,107.511 296.109,106.127C298.226,105.378 301.333,104.497 305.368,104.123C305.52,104.15 305.743,104.195 306.009,104.269C308.435,104.949 309.81,106.808 310.589,107.717C311.622,108.921 313.309,110.437 316.16,111.723C316.519,112.007 317.067,112.456 317.694,113.051C319.274,114.55 319.77,115.467 320.076,115.335C320.501,115.151 320.122,113.117 319.723,111.835C319.476,111.041 319.229,110.559 318.911,109.334C318.72,108.595 318.7,108.348 318.593,107.9C318.419,107.164 318.156,106.492 317.863,105.894C317.37,104.894 316.794,104.102 316.41,103.574C315.774,102.702 315.223,102.129 314.957,101.643C314.796,101.353 314.735,101.094 314.818,100.821C314.828,100.788 314.985,100.295 315.347,100.202C315.54,100.153 315.717,100.236 316.228,100.556C316.503,100.729 316.866,100.965 317.285,101.263C318.004,102.011 319.028,102.925 320.394,103.757C321.528,104.447 322.593,104.895 323.463,105.191C323.718,105.346 324.096,105.592 324.521,105.934C326.42,107.468 326.87,109.032 327.273,108.909C327.744,108.764 327.521,106.5 327.22,105.032C327.082,104.359 326.92,103.812 326.797,103.438C326.717,103.124 326.596,102.683 326.426,102.164C326.423,102.155 326.42,102.146 326.417,102.137C326.243,101.607 326.045,101.066 325.811,100.513L325.854,100.577C325.702,100.211 325.532,99.84 325.315,99.455C325.072,99.023 325.151,99.24 323.516,96.959C323.185,96.498 323.033,96.282 322.929,96.144L322.96,96.191C322.868,96.067 322.812,96 322.728,95.909C321.963,95.087 321.51,95.057 320.876,94.316C320.689,94.098 320.37,93.725 320.209,93.39C320.11,93.188 320.066,93 320.141,92.866C320.418,92.375 322.179,92.839 324.793,93.553C325.831,93.836 326.537,94.085 327.818,94.288C329.152,94.5 329.246,94.365 329.99,94.514C332.593,95.033 333.751,97.14 334.224,96.817C334.66,96.519 333.935,94.614 333.274,93.416C332.822,92.596 332.334,91.988 331.983,91.595C331.239,90.134 330.359,89.262 329.717,88.748C328.563,87.825 327.093,87.199 326.57,86.964C325.648,86.549 325.03,86.337 324.109,85.728C323.346,85.225 322.835,84.878 322.877,84.493C322.949,83.82 324.661,83.464 325.433,83.303C325.962,83.193 326.386,83.151 327.165,83.096C327.985,83.038 329.101,82.973 330.448,82.938C333.659,83.038 335.144,83.481 335.899,83.894C336.035,83.969 336.436,84.2 336.556,84.081C336.769,83.871 335.973,82.694 335.476,82.088C334.876,81.357 333.699,80.225 331.454,79.486C331.267,79.283 330.98,79.001 330.588,78.719C329.902,78.224 329.288,78.015 328.121,77.658C326.678,77.217 325.957,76.996 325.39,76.862C323.807,76.489 322.643,76.341 321.954,76.243C319.389,75.878 318.097,75.438 316.14,75.006C313.743,74.476 311.089,73.898 308.202,73.82L308.21,73.833L308.209,73.833C307.083,73.802 305.926,73.841 304.73,73.997C301.122,74.471 297.938,75.834 296.346,76.543C292.886,78.085 291.091,79.568 288.822,79.014C287,78.57 285.783,77.034 285.025,75.756C285.026,75.756 285.026,75.755 285.026,75.754C285.024,75.751 285.022,75.747 285.02,75.744C285.753,74.149 286.466,72.93 286.977,72.116C287.672,71.011 288.011,70.631 288.915,69.204C289.941,67.585 290.078,66.96 290.635,66.291C291.955,64.706 293.466,63.321 295.134,62.127C295.312,62 295.481,61.864 295.657,61.736C295.888,61.55 296.12,61.366 296.359,61.188C297.145,60.601 297.911,59.992 298.673,59.38L298.691,59.408C304.509,54.732 309.63,49.342 314.347,43.509C319.265,37.429 319.939,36.174 324.282,32.011C328.434,28.032 330.51,26.042 332.924,24.401C333.503,24.007 334.354,23.452 335.348,22.471C337.669,20.182 339.094,17.228 339.276,15.929C339.335,15.512 339.626,14.985 339.694,14.251C339.736,13.811 339.717,13.424 339.68,13.094C338.981,11.791 338.266,10.497 337.535,9.213C337.528,9.202 337.522,9.19 337.516,9.179C336.781,7.889 336.029,6.608 335.26,5.338C335.259,5.336 335.258,5.335 335.257,5.333C334.428,4.762 333.727,4.313 333.254,4.019C331.743,3.08 326.216,-0.279 317.396,-2.608C316.77,-2.773 316.141,-2.944 315.267,-3.141C313.812,-3.47 309.24,-4.447 299.961,-5.04C296.88,-5.237 294.878,-5.289 291.576,-5.376C287.87,-5.473 285.852,-5.457 283.357,-5.208C283.024,-5.175 282.068,-5.076 280.7,-4.872C276.609,-4.264 273.72,-3.87 270.571,-2.608C269.346,-2.117 267.656,-1.327 265.756,-0.046C264.411,-0.401 262.371,-0.787 259.903,-0.637C257.297,-0.48 253.859,0.343 253.869,1.164C253.872,1.389 254.145,1.544 254.691,1.844C256.544,2.865 257.689,2.556 259.433,3.44C259.701,3.576 260.082,3.79 260.513,4.112C259.593,4.435 258.505,4.742 257.267,4.956C256.794,5.037 256.025,5.167 255.03,5.213C253.099,5.303 252.391,4.983 250.124,5.095C249.674,5.117 248.836,5.172 248.048,5.724C247.681,5.981 247.322,6.233 247.322,6.563C247.321,7.087 248.244,7.435 250.845,8.516C251.783,8.906 252.534,9.224 252.981,9.413C252.494,9.704 251.745,10.094 250.776,10.368C249.625,10.693 248.903,10.634 245.575,10.527C243.385,10.457 242.013,10.431 240.68,11.281C240.065,11.673 240.048,11.875 240.06,11.96C240.18,12.813 244.846,12.855 245.997,14.335C246.075,14.435 246.146,14.558 246.134,14.697C246.074,15.391 244.023,15.715 243.006,15.904C238.776,16.693 234.04,18.587 233.377,20.71C233.291,20.985 233.317,21.123 233.377,21.213C233.794,21.839 236.092,20.439 239.403,20.049C240.802,19.884 243.105,19.755 243.271,20.348C243.308,20.48 243.232,20.616 243.146,20.735C242.255,21.975 239.137,22.498 237.767,22.795C234.752,23.449 231.663,24.745 231.754,25.331C231.788,25.551 232.261,25.639 232.896,25.751C234.702,26.07 235.858,25.754 237.463,25.646C238.546,25.572 240.915,25.52 241.005,25.97C241.09,26.395 239.158,27.148 237.662,27.732C235.693,28.5 234.858,28.629 232.896,29.525C232.742,29.595 231.378,30.237 230.301,31.622C229.972,32.047 229.917,32.223 229.974,32.338C230.177,32.745 231.682,32.142 234.071,31.861C235.42,31.702 237.579,31.448 237.696,31.861C237.816,32.286 235.725,33.276 235.016,33.612C233.982,34.102 232.796,34.55 232.796,34.55C231.659,34.978 230.829,35.216 230.197,36.026C230.017,36.256 229.8,36.535 229.891,36.73C230.041,37.055 231.066,36.859 233.128,36.563C235.523,36.218 236.85,35.852 237.528,36.563C237.606,36.644 237.772,36.823 237.777,37.066C237.786,37.426 237.459,37.881 235.951,38.576C234.586,39.205 233.668,39.381 233,39.591C230.496,40.379 228.592,42.563 228.848,43.051C229.151,43.626 232.814,42.537 234.291,42.098C235.588,41.713 236.552,41.346 236.781,41.679C237.006,42.005 236.418,42.841 235.962,43.324C234.704,44.659 232.808,45.062 231.339,45.358C229.815,45.665 229.247,45.579 229.029,46.03C228.687,46.736 229.496,48.147 230.625,48.613C231.997,49.179 233.43,48.174 233.568,48.436C233.613,48.522 233.608,48.895 230.233,51.185C227.123,53.296 226.682,53.283 225.175,54.592C223.79,55.795 223.834,56.092 222.787,56.721C221.158,57.699 220.55,57.281 218.852,58.14C216.714,59.223 217.215,57.675 215.34,58.39C213.665,59.028 211.926,58.82 210.704,58.674C210.081,58.599 209.805,58.51 209.574,58.405C208.636,57.979 208.542,57.356 207.593,56.82C207.136,56.561 206.246,56.192 205.996,56.471C205.586,56.931 207.33,58.664 206.823,59.403C206.556,59.792 205.772,59.75 205.303,59.595C205.136,59.539 204.762,59.389 203.783,58.251C203.177,57.546 203.006,57.208 202.454,56.908C202.099,56.715 201.748,56.524 201.533,56.661C200.888,57.071 202.355,59.836 201.533,60.459C201.372,60.581 201.129,60.617 200.935,60.554C199.839,60.2 200.583,56.822 199.324,56.281C199.045,56.161 198.699,56.196 198.465,56.333C197.983,56.614 197.872,57.382 197.705,58.635C197.607,59.375 197.58,60.025 197.256,60.127C197.174,60.153 197.102,60.135 197.068,60.127C196.361,59.951 196.641,58.024 195.517,56.899C195.124,56.505 194.414,56.064 194.061,56.281C193.35,56.717 194.683,59.431 193.746,60.119C193.541,60.269 193.214,60.333 192.98,60.222C192.736,60.106 192.622,59.816 192.509,59.177C192.238,57.644 192.486,57.026 192.04,56.566C191.992,56.516 191.647,56.161 191.288,56.234C190.275,56.44 190.605,59.759 189.502,60.032C189.239,60.097 188.919,59.982 188.779,59.787C188.523,59.433 188.963,58.976 189.067,58.106C189.193,57.055 188.766,55.907 188.328,55.854C188.288,55.849 188.152,55.842 187.905,56.092C187.187,56.816 187.53,57.688 186.953,59.063C186.616,59.868 186.281,60.085 186.119,60.17C185.757,60.36 185.205,60.438 184.944,60.175C184.754,59.982 184.835,59.726 184.897,58.94C185.035,57.184 184.763,56.755 184.662,56.614C184.59,56.516 184.279,56.087 183.957,56.139C183.751,56.172 183.514,56.407 182.782,58.798C182.548,59.563 182.424,60.022 182.03,60.175C181.752,60.282 181.409,60.21 181.184,60.032C180.949,59.846 180.857,59.555 180.801,58.827C180.689,57.361 180.933,56.807 180.611,56.524C180.35,56.294 179.856,56.372 179.54,56.519C178.185,57.149 178.446,59.826 177.613,59.937C177.427,59.962 177.275,59.847 177.142,59.747C176.127,58.981 176.985,56.803 176.298,56.471C176.127,56.389 175.948,56.461 175.686,56.566C175.064,56.816 174.843,57.348 174.153,58.443C173.834,58.952 173.693,59.065 173.592,59.067C173.5,59.069 173.428,59.025 173.396,59.004C173.069,58.792 173.154,58.245 173.013,57.33C172.931,56.792 172.883,56.478 172.761,56.46C172.521,56.425 171.978,57.527 171.751,58.482C171.719,58.617 171.623,59.051 171.281,59.431C171.131,59.598 170.988,59.758 170.871,59.723C170.552,59.629 171.053,58.261 170.34,57.247C170.238,57.101 169.94,56.677 169.652,56.729C168.983,56.848 169.012,59.414 168.702,59.415C168.566,59.416 168.449,58.921 168.367,58.576C168.145,57.637 168.286,57.163 167.944,56.915C167.821,56.826 167.634,56.764 167.474,56.82C167.194,56.917 167.153,57.319 166.958,57.959C166.797,58.485 166.535,59.344 166.3,59.336C166.043,59.328 165.803,58.292 165.663,57.688C165.531,57.119 165.494,56.752 165.266,56.677C165.077,56.616 164.865,56.791 164.713,56.921C164.197,57.36 164.016,57.849 163.574,58.814C162.965,60.141 162.756,60.303 162.588,60.295C162.389,60.286 162.245,60.037 162.17,59.907C161.977,59.575 162.018,59.305 162.006,58.749C161.986,57.837 161.851,57.349 161.733,57.038C161.644,56.804 161.501,56.437 161.295,56.431C161.129,56.426 160.993,56.663 160.913,56.817C160.271,58.041 160.434,58.951 159.802,59.631C159.724,59.715 159.259,60.215 158.944,60.091C158.244,59.813 159.129,56.773 158.237,56.376C158.06,56.297 157.881,56.352 157.8,56.376C157.184,56.562 157.215,57.46 156.385,58.739C156.084,59.203 155.84,59.454 155.506,59.521C155.474,59.528 155.058,59.605 154.796,59.356C154.587,59.157 154.59,58.859 154.586,58.491C154.564,56.552 154.371,56.34 154.25,56.265C154.039,56.135 153.764,56.242 153.704,56.265C153.401,56.383 153.236,56.676 152.848,57.779C152.49,58.793 152.364,59.299 152.048,59.346C151.937,59.362 151.846,59.316 151.814,59.299C151.133,58.938 151.999,57.076 151.082,56.21C150.961,56.097 150.855,55.996 150.699,55.989C149.866,55.954 149.41,58.686 148.758,58.634C148.402,58.605 148.173,57.759 148.1,57.494C147.832,56.506 148.141,55.859 147.75,55.548C147.503,55.352 147.149,55.426 147.094,55.438C146.268,55.622 146.371,56.879 145.328,57.589C145.202,57.676 144.459,58.181 143.965,57.922C143.088,57.462 143.853,55.048 143.162,54.776C142.726,54.604 141.964,55.382 141.662,55.69C141.128,56.236 141.164,56.481 140.723,56.782C140.23,57.119 139.386,57.359 139.011,57.024C138.403,56.481 139.474,54.836 138.956,54.444C138.587,54.165 137.556,54.634 136.963,55.311C136.516,55.82 136.427,56.324 136.165,56.308C135.863,56.289 135.654,55.604 135.569,55.327C135.329,54.536 135.491,54.163 135.242,54.003C134.943,53.812 134.339,54.115 133.986,54.444C133.492,54.906 133.413,55.494 133.063,55.5C132.93,55.503 132.829,55.42 132.784,55.382C132.223,54.919 132.901,53.649 132.456,53.286C132.205,53.081 131.738,53.276 131.2,53.506C130.227,53.924 129.726,54.424 129.438,54.615C128.487,55.245 125.381,53.375 122.608,51.991C121.645,51.51 120.145,50.847 117.147,49.523C114.573,48.385 114.262,48.287 113.775,47.751C112.612,46.472 112.738,45.398 111.076,43.661C110.766,43.338 109.676,42.199 109.163,42.473C108.968,42.577 108.947,42.838 108.853,43.725C108.624,45.902 108.555,46.19 108.338,46.332C107.883,46.628 106.999,46.144 106.479,45.706C105.147,44.584 105.667,43.309 104.414,41.951C103.49,40.949 102.106,40.45 101.729,40.804C101.303,41.204 102.388,42.494 101.766,43.661C101.728,43.733 101.416,44.278 100.821,44.479C99.937,44.779 99.064,44.131 98.798,43.934C97.98,43.327 98.095,42.86 97.187,41.534C96.275,40.202 95.35,39.49 94.812,39.135C94.431,38.883 93.108,38.01 92.643,38.405C92.339,38.663 92.699,39.216 92.643,40.491C92.61,41.251 92.564,42.334 91.917,42.707C91.428,42.99 90.763,42.774 90.163,42.571C89.578,42.373 89.181,42.095 89.084,42.026C88.319,41.483 86.938,38.391 85.003,37.361C84.404,37.043 83.458,36.766 83.042,37.153C82.776,37.399 82.765,38.033 82.743,39.299C82.735,39.741 82.719,40.349 82.317,40.828C82.284,40.867 82.247,40.902 82.203,40.935C81.577,41.414 80.271,40.838 79.909,40.662C78.198,39.835 78.137,38.781 76.33,37.361C76.048,37.139 73.749,35.334 72.758,36.028C72.4,36.279 72.222,36.848 72.2,37.257C72.178,37.658 72.314,37.781 72.488,38.482C72.708,39.363 72.823,39.808 72.624,40.117C72.249,40.696 71.149,40.583 70.599,40.526C69.727,40.436 69.09,40.114 68.845,39.981C67.701,39.356 67.58,38.725 66.687,37.936C65.17,36.597 63.003,36.199 62.639,36.71C62.462,36.957 62.824,37.255 62.912,38.33C62.961,38.934 63.018,39.63 62.639,39.981C62.191,40.394 61.348,40.132 60.885,39.981C59.434,39.509 59.217,38.788 57.942,37.968C55.95,36.685 53.411,36.478 53.059,37.118C52.97,37.28 53.089,37.377 53.329,38.345C53.59,39.392 53.716,39.922 53.542,40.265C53.206,40.928 52.136,40.98 51.77,40.999C50.975,41.04 50.351,40.797 49.898,40.595C47.798,39.661 47.579,38.859 46.078,38.196C44.454,37.479 42.588,37.469 42.361,37.987C42.261,38.215 42.529,38.424 43.186,39.656C43.895,40.985 43.841,41.224 43.807,41.325C43.581,41.995 42.367,42.231 41.534,42.16C41.197,42.131 40.947,42.053 40.399,41.847C39.085,41.353 38.123,40.896 37.921,40.804C35.879,39.864 33.288,40.057 33.091,40.662C33.047,40.8 33.151,40.883 33.894,41.951C34.699,43.108 34.748,43.256 34.72,43.411C34.61,44.035 33.314,44.497 32.139,44.455C30.58,44.398 30.329,43.493 28.525,43.099C27.007,42.767 25.216,42.977 25.014,43.62C24.784,44.356 26.784,45.177 26.563,46.228C26.39,47.055 24.981,47.361 24.911,47.375C23.743,47.615 23.111,46.995 21.814,46.645C19.628,46.055 17.2,46.675 17.064,47.375C16.912,48.164 19.688,48.919 19.542,49.983C19.44,50.733 17.96,51.097 17.711,51.158C16.236,51.521 15.622,50.923 13.932,50.886C12.43,50.852 10.546,51.39 10.423,52.156C10.265,53.131 13.064,53.868 12.941,55.088C12.863,55.868 11.644,56.344 10.964,56.611C9.169,57.313 8.459,56.713 6.326,57.181C4.698,57.538 2.865,58.382 2.919,59.058C2.939,59.304 3.208,59.465 3.745,59.789C5.022,60.557 5.797,60.406 5.972,60.836C6.186,61.362 5.317,62.302 4.488,62.881C3.14,63.822 2.365,63.409 0.44,64.108C-1.151,64.685 -3.008,65.83 -2.863,66.569C-2.765,67.067 -1.766,67.327 -1.044,67.515C0.191,67.837 0.938,67.607 1.102,67.963C1.288,68.362 0.549,69.077 0.338,69.281C-0.9,70.479 -1.919,70.443 -3.483,71.263C-4.751,71.928 -6.489,73.214 -6.271,73.975C-6.039,74.781 -3.844,74.486 -3.689,75.227C-3.584,75.731 -4.551,76.103 -5.907,77.562C-6.375,78.066 -7.36,79.131 -7.446,79.806C-7.449,79.841 -7.451,79.876 -7.453,79.911C-7.451,79.99 -7.442,80.066 -7.406,80.129C-7.092,80.683 -5.723,80.028 -5.254,80.697C-4.84,81.288 -5.458,82.451 -5.863,82.98C-6.4,83.681 -7.101,83.96 -7.307,84.04C-7.447,84.094 -7.576,84.131 -7.698,84.161L-7.698,84.163C-7.751,85.369 -7.795,86.579 -7.825,87.791C-7.854,89.059 -7.876,90.33 -7.876,91.605C-7.876,92.955 -7.855,94.301 -7.822,95.644C-7.813,96.05 -7.798,96.455 -7.786,96.86C-7.755,97.836 -7.716,98.81 -7.668,99.782C-7.648,100.2 -7.628,100.618 -7.605,101.036C-7.537,102.229 -7.458,103.418 -7.366,104.605C-7.354,104.749 -7.347,104.894 -7.335,105.038C-7.23,106.335 -7.106,107.627 -6.971,108.916C-6.925,109.359 -6.873,109.8 -6.823,110.242C-6.723,111.128 -6.617,112.012 -6.503,112.893C-6.441,113.371 -6.38,113.849 -6.314,114.325C-6.178,115.307 -6.032,116.286 -5.879,117.262C-5.829,117.584 -5.784,117.908 -5.732,118.229C-5.534,119.448 -5.319,120.661 -5.094,121.871C-5,122.38 -4.899,122.887 -4.799,123.394C-4.649,124.163 -4.494,124.931 -4.333,125.697C-4.219,126.241 -4.104,126.784 -3.984,127.326C-3.809,128.12 -3.624,128.911 -3.437,129.701C-3.313,130.229 -3.191,130.758 -3.061,131.284C-2.794,132.366 -2.516,133.443 -2.227,134.517C-2.076,135.079 -1.917,135.639 -1.761,136.199C-1.573,136.87 -1.382,137.54 -1.186,138.207C-1.014,138.793 -0.84,139.379 -0.662,139.962C-0.454,140.643 -0.239,141.32 -0.022,141.997C0.149,142.532 0.341,143.17 0.517,143.703C0.235,141.947 0.035,140.058 0,138.23" style="fill:white;fill-rule:nonzero;"/> </g> </g> <g id="Layer-5" serif:id="Layer 5"> </g> <g id="Layer-4" serif:id="Layer 4"> </g> <g id="Layer-3" serif:id="Layer 3"> </g> <g id="Layer-2" serif:id="Layer 2"> <g transform="matrix(1,0,0,1,970.685,233.258)"> <path d="M0,-78.543C-3.155,-56.213 -6.311,-33.882 -9.466,-11.552L9.646,-11.552C6.43,-33.882 3.215,-56.213 0,-78.543M-0.337,-128.235C6.574,-128.235 13.487,-128.215 20.398,-128.255C21.581,-128.262 22.094,-127.889 22.319,-126.68C25.087,-111.79 27.907,-96.91 30.714,-82.027C33.506,-67.217 36.304,-52.409 39.09,-37.597C40.74,-28.825 42.387,-20.052 44.034,-11.279C47.736,8.446 48.136,10.495 49.225,16.359C50.687,24.228 52.779,35.615 55.266,49.608C43.26,49.645 31.255,49.682 19.249,49.719C17.065,37.275 14.88,24.831 12.695,12.387L-12.603,12.387C-14.757,24.827 -16.912,37.268 -19.067,49.708C-31.388,49.703 -43.71,49.698 -56.031,49.692C-52.474,29.923 -49.52,13.944 -47.546,3.354C-46.83,-0.488 -46.151,-4.053 -36.989,-52.449C-34.365,-66.308 -31.734,-80.166 -29.109,-94.025C-27.05,-104.893 -24.994,-115.762 -22.936,-126.63C-22.645,-128.162 -22.566,-128.232 -20.961,-128.233C-14.087,-128.237 -7.212,-128.235 -0.337,-128.235" style="fill:white;fill-rule:nonzero;"/> </g> <g transform="matrix(1,0,0,1,619.249,194.759)"> <path d="M0,-0.935C0,13.78 -0.03,28.495 0.021,43.21C0.034,47.031 0.23,50.848 1.335,54.569C2.541,58.629 5.144,61.178 9.188,62.331C10.931,62.828 12.7,62.888 14.49,62.787C19.832,62.483 23.569,59.526 25.055,54.408C25.292,53.589 25.514,52.763 25.707,51.932C26.493,48.54 26.557,45.074 26.562,41.627C26.597,13.795 26.585,-14.038 26.578,-41.87C26.577,-44.916 26.494,-47.962 26.142,-50.991C25.879,-53.25 25.362,-55.463 24.466,-57.555C22.678,-61.727 19.186,-63.456 14.937,-64.109C8.216,-65.142 2.764,-61.562 1.047,-55.026C0.196,-51.79 0.037,-48.489 0.024,-45.192C-0.03,-30.44 0,-15.687 0,-0.935M-40.521,1.962C-40.521,-12.007 -40.511,-23.043 -40.524,-34.08C-40.534,-42.54 -39.878,-50.924 -37.628,-59.116C-35.569,-66.607 -32.187,-73.405 -26.768,-79.072C-22.437,-83.6 -17.156,-86.613 -11.272,-88.64C-5.22,-90.725 1.033,-91.651 7.403,-92.016C15.04,-92.453 22.623,-92.127 30.13,-90.624C37.055,-89.238 43.553,-86.81 49.222,-82.462C55.4,-77.723 59.401,-71.427 62.198,-64.279C64.514,-58.359 65.752,-52.189 66.45,-45.887C67.02,-40.745 67.092,-35.589 67.088,-30.425C67.07,-8.427 67.157,13.572 67.021,35.569C66.963,44.86 65.601,54.003 62.216,62.738C58.866,71.383 53.764,78.655 45.654,83.518C40.389,86.676 34.657,88.588 28.64,89.567C16.685,91.511 4.75,91.518 -7.064,88.54C-15.008,86.537 -22.079,82.914 -27.612,76.702C-32.399,71.328 -35.49,65.029 -37.452,58.155C-39.13,52.274 -40.016,46.253 -40.277,40.154C-40.863,26.45 -40.331,12.737 -40.521,1.962" style="fill:white;fill-rule:nonzero;"/> </g> <g transform="matrix(1,0,0,1,497.49,211.779)"> <path d="M0,-35.853L30.265,-107.021L68.298,-107.021L35.922,-26.216L69.851,71.168L30.112,71.168L6.2,-0.972L3.934,-7.434L0,-3.221L0,71.168L-38.998,71.168L-38.998,-107.021L0,-107.021L0,-35.853Z" style="fill:white;fill-rule:nonzero;"/> </g> <g transform="matrix(1,0,0,1,757.532,233.258)"> <path d="M0,-78.543C-3.155,-56.213 -6.311,-33.882 -9.466,-11.552L9.646,-11.552C6.43,-33.882 3.215,-56.213 0,-78.543M-0.337,-128.235C6.574,-128.235 13.486,-128.215 20.398,-128.255C21.581,-128.262 22.094,-127.889 22.319,-126.68C25.087,-111.79 27.907,-96.91 30.714,-82.027C33.506,-67.217 36.304,-52.409 39.09,-37.597C40.74,-28.825 42.387,-20.052 44.034,-11.279C47.736,8.446 48.136,10.495 49.225,16.359C50.687,24.228 52.779,35.615 55.266,49.608C43.26,49.645 31.255,49.682 19.249,49.719C17.065,37.275 14.88,24.831 12.695,12.387L-12.603,12.387C-14.757,24.827 -16.912,37.268 -19.067,49.708C-31.388,49.703 -43.71,49.698 -56.031,49.692C-52.474,29.923 -49.52,13.944 -47.546,3.354C-46.83,-0.488 -46.151,-4.053 -36.989,-52.449C-34.365,-66.308 -31.734,-80.166 -29.109,-94.025C-27.05,-104.893 -24.994,-115.762 -22.936,-126.63C-22.645,-128.162 -22.566,-128.232 -20.962,-128.233C-14.087,-128.237 -7.212,-128.235 -0.337,-128.235" style="fill:white;fill-rule:nonzero;"/> </g> <g transform="matrix(1,0,0,1,842.493,179.526)"> <path d="M0,29.202C0,8.578 -0.001,-12.046 0.001,-32.669C0.001,-36.343 0.01,-40.016 0.018,-43.69C0.021,-45.011 -0.128,-45.164 -1.454,-45.164C-9.555,-45.162 -17.656,-45.159 -25.757,-45.16C-27.322,-45.16 -27.399,-45.237 -27.4,-46.799C-27.403,-55.457 -27.403,-64.115 -27.4,-72.773C-27.399,-74.448 -27.339,-74.502 -25.489,-74.502C3.087,-74.503 31.663,-74.503 60.239,-74.503C61.948,-74.503 63.658,-74.484 65.367,-74.509C66.257,-74.521 66.63,-74.164 66.628,-73.248C66.61,-64.293 66.603,-55.337 66.633,-46.382C66.637,-45.234 66.03,-45.149 65.149,-45.151C57.234,-45.165 49.319,-45.159 41.404,-45.158C39.615,-45.158 39.614,-45.155 39.614,-43.367C39.613,4.681 39.616,52.729 39.607,100.776C39.606,103.611 40.121,103.723 36.615,103.719C25.096,103.707 13.576,103.715 2.057,103.713C0.027,103.713 0.008,103.686 0.008,101.664L0.008,29.202L0,29.202Z" style="fill:white;fill-rule:nonzero;"/> </g> <g transform="matrix(1,0,0,1,607.399,371.577)"> <path d="M0,-56.35L-10.526,-56.35L-10.526,0L13.754,0L13.754,-9.538L0,-9.538L0,-56.35Z" style="fill:white;fill-rule:nonzero;"/> </g> <g transform="matrix(1,0,0,1,0,238.217)"> <rect x="640.181" y="77.01" width="10.526" height="56.35" style="fill:white;"/> </g> <g transform="matrix(1,0,0,1,691.378,340.475)"> <path d="M0,5.854L-5.848,-25.248L-19.362,-25.248L-19.362,31.102L-9.902,31.102L-9.902,-2.841L-3.663,31.102L3.116,31.102L9.588,-3.137L9.588,31.102L19.278,31.102L19.278,-25.248L5.916,-25.248L0,5.854Z" style="fill:white;fill-rule:nonzero;"/> </g> <g transform="matrix(1,0,0,1,0,238.217)"> <rect x="731.96" y="77.01" width="10.526" height="56.35" style="fill:white;"/> </g> <g transform="matrix(1,0,0,1,760.753,361.962)"> <path d="M0,-37.12L9.652,-37.12L9.652,9.615L20.178,9.615L20.178,-37.12L29.676,-37.12L29.676,-46.735L0,-46.735L0,-37.12Z" style="fill:white;fill-rule:nonzero;"/> </g> <g transform="matrix(1,0,0,1,819.224,339.773)"> <path d="M0,7.258L10.637,7.258L10.637,-1.899L0,-1.899L0,-15.082L14.438,-15.082L14.438,-24.546L-10.526,-24.546L-10.526,31.804L15.045,31.804L15.045,22.189L0,22.189L0,7.258Z" style="fill:white;fill-rule:nonzero;"/> </g> <g transform="matrix(1,0,0,1,864.205,362.339)"> <path d="M0,-37.874L2.904,-37.874C6.543,-37.874 7.71,-36.484 7.71,-32.157L7.71,-5.713C7.71,-1.386 6.543,0.004 2.904,0.004L0,0.004L0,-37.874ZM3.207,-47.112L-10.526,-47.112L-10.526,9.238L3.207,9.238C13.231,9.238 18.313,4.004 18.313,-6.323L18.313,-31.55C18.313,-41.877 13.231,-47.112 3.207,-47.112" style="fill:white;fill-rule:nonzero;"/> </g> <g transform="matrix(-1,0,0,1,1933.12,241.586)"> <rect x="905.384" y="101.987" width="122.353" height="3.027" style="fill:white;"/> </g> <g transform="matrix(-1,0,0,1,1033.2,241.586)"> <rect x="458.492" y="101.987" width="116.22" height="3.027" style="fill:white;"/> </g> </g> </g> </g> </svg>