<svg version="1.2" xmlns="http://www.w3.org/2000/svg" viewBox="0 0 1684 930" width="1684" height="930">
	<defs>
		<clipPath clipPathUnits="userSpaceOnUse" id="cp1">
			<path d="m0 0h1684v930h-1684z"/>
		</clipPath>
	</defs>
	<style>
		.s0 { fill: #ffffff } 
	</style>
	<g id="Page 1" clip-path="url(#cp1)">
		<path id="Path 1" fill-rule="evenodd" class="s0" d="m195.89 758.29h10.59v-76.82h26.18v-9.62h-62.58v9.62h25.81zm89.37-30.68c0-16.92-11.08-29.34-27.28-29.34-16.92 0-29.22 12.54-29.22 30.43 0 18.15 12.42 30.32 29.95 30.32 11.94 0 19.36-4.5 24.48-11.08l-6.94-5.84c-3.66 4.5-9.26 7.91-17.17 7.91-11.2 0-18.99-7.3-20.33-18.38h46.26c0-0.73 0.25-2.44 0.25-4.02zm-27.4-20.33c9.74 0 16.07 6.57 17.53 16.31h-36.4c1.83-10.1 9.38-16.31 18.87-16.31zm72.81 51.01h10.59v-23.98l12.54-14.74 28.12 38.72h13.27l-34.33-47 33.48-39.44h-13.63l-39.21 47.36h-0.24v-47.36h-10.59zm98.13 0.73c9.62 0 16.92-4.38 21.18-11.45h0.12v10.72h9.5v-59.29h-9.86v10.47l-0.24 0.12c-4.27-7.19-11.94-11.33-20.7-11.33-16.8 0-28.86 13.28-28.86 30.81 0 18.02 12.54 29.95 28.86 29.95zm1.46-9.01c-12.18 0-20.33-9.01-20.33-20.94 0-13.15 9.13-21.8 20.33-21.8 11.69 0 19.84 9.62 19.84 21.8 0 12.54-8.88 20.94-19.84 20.94zm66.23 9.01c7.79 0 15.1-3.9 19.6-10.96h0.12v10.23h9.86v-59.29h-9.86v28.73c0 14.12-8.15 22.28-17.65 22.28-9.38 0-14.49-5.11-14.49-18.51v-32.5h-9.86v35.3c0 16.93 8.64 24.72 22.28 24.72zm45.66-0.73h9.86v-29.59c0-13.39 7.3-21.43 18.5-21.43 8.65 0 14.61 4.75 14.61 18.63v32.39h9.87v-35.19c0-16.92-8.53-24.84-21.31-24.84-9.13 0-16.92 4.27-21.55 11.45h-0.12v-10.71h-9.86zm74.02-70.13c4.02 0 7.18-3.17 7.18-7.06 0-3.9-3.16-7.07-7.18-7.07-4.02 0-7.18 3.17-7.18 7.07 0 3.89 3.16 7.06 7.18 7.06zm-4.99 70.13h9.86v-59.3h-9.86zm27.27 0h9.86v-29.82c0-13.4 7.3-21.19 19.11-21.19 8.65 0 14.61 4.87 14.61 18.26v32.75h9.87v-35.55c0-16.92-8.77-24.47-21.55-24.47-9.5 0-17.29 4.02-21.92 11.08h-0.12v-40.66h-9.86zm121.63-30.69c0-16.92-11.08-29.34-27.28-29.34-16.92 0-29.22 12.54-29.22 30.44 0 18.14 12.42 30.32 29.95 30.32 11.94 0 19.36-4.51 24.48-11.08l-6.94-5.85c-3.66 4.51-9.26 7.92-17.17 7.92-11.2 0-18.99-7.31-20.33-18.39h46.26c0-0.73 0.25-2.43 0.25-4.02zm-27.4-20.33c9.74 0 16.07 6.58 17.53 16.32h-36.4c1.83-10.11 9.38-16.32 18.87-16.32zm40.06 51.02h9.86v-28.62c0-11.93 6.69-20.57 18.02-20.57 0.97 0 2.43 0.12 3.89 0.24v-10.96c-0.85-0.12-1.58-0.12-2.43-0.12-8.16 0-14.98 4.39-19.24 11.57h-0.24v-10.84h-9.86zm64.28 0.73c9.62 0 16.92-4.38 21.19-11.44h0.12v10.71h9.49v-59.29h-9.86v10.47l-0.24 0.12c-4.26-7.18-11.93-11.32-20.7-11.32-16.8 0-28.85 13.27-28.85 30.8 0 18.02 12.54 29.95 28.85 29.95zm1.46-9.01c-12.17 0-20.33-9-20.33-20.94 0-13.15 9.13-21.79 20.33-21.79 11.69 0 19.85 9.62 19.85 21.79 0 12.54-8.89 20.94-19.85 20.94zm103.49 9.01c17.53 0 30.56-12.29 30.56-30.31 0-18.02-13.03-30.44-30.56-30.44-18.39 0-30.68 13.39-30.68 30.44 0 17.04 12.29 30.31 30.68 30.31zm0-9.01c-12.3 0-20.58-9.49-20.58-21.3 0-11.81 8.16-21.43 20.58-21.43 11.44 0 20.45 8.77 20.45 21.43 0 12.66-9.13 21.3-20.45 21.3zm90.21 8.28h21.06l13.52-52.59h0.24l12.79 52.59h21.06l26.9-86.44h-24.71l-12.54 48.34h-0.37l-11.32-48.34h-24.35l-11.57 48.46h-0.36l-12.54-48.46h-24.72zm101.79 0h21.79v-29.95c0-8.16 3.41-11.69 8.64-11.69 5.97 0 8.41 2.32 8.41 10.84v30.8h21.79v-36.04c0-19.35-9.13-24.83-21.19-24.83-6.81 0-12.9 2.68-17.41 7.79l-0.24-0.12v-36.41h-21.79zm95.69 1.22c6.58 0 11.57-2.19 15.22-6.69l0.24 0.12v5.35h20.7v-59.65h-21.79v5.84h-0.24c-4.14-4.63-9.74-7.06-15.47-7.06-14.85 0-26.42 12.66-26.42 31.05 0 18.38 11.45 31.04 27.76 31.04zm4.87-18.99c-6.21 0-10.59-4.75-10.59-12.05 0-7.07 4.38-11.94 10.59-11.94 5.72 0 10.47 4.87 10.47 11.94 0 7.3-4.75 12.05-10.47 12.05zm41.76 17.77h21.31v-17.28l4.26-4.63 11.81 21.91h23.98l-20.08-35.91 19.35-23.74h-24.95l-14.13 18.5h-0.24v-48.45h-21.31zm87.42 1.21c6.57 0 11.57-2.19 15.22-6.69l0.24 0.12v5.36h20.7v-59.66h-21.79v5.84h-0.25c-4.14-4.62-9.74-7.06-15.46-7.06-14.85 0-26.42 12.66-26.42 31.05 0 18.38 11.44 31.04 27.76 31.04zm4.87-18.99c-6.21 0-10.59-4.75-10.59-12.05 0-7.06 4.38-11.93 10.59-11.93 5.72 0 10.47 4.87 10.47 11.93 0 7.3-4.75 12.05-10.47 12.05zm61.97 18.99c8.64 0 13.03-1.82 17.53-4.38l-5.36-15.1c-1.58 0.61-3.53 0.86-4.38 0.86-3.53 0-3.89-3.17-3.89-5.97v-18.99h12.9v-17.29h-12.9v-20.94l-21.8 2.19v18.75h-6.45v17.29h6.45v23.62c0 13.63 7.79 19.96 17.9 19.96zm34.33-70.37h38.96v-16.07h-38.96zm10.47 70.37c6.46 0 12.18-2.56 16.32-7.67l0.24 0.12v6.33h21.8v-59.65h-21.8v29.95c0 8.15-3.53 11.81-8.16 11.81-5.47 0-7.79-3.53-7.79-12.06v-29.7h-21.67v34.94c0 19.36 8.89 25.93 21.06 25.93zm-1162.88-157.98h22.64v-47.36h0.25l29.95 47.36h22.77v-86.44h-22.77v48.82l-0.25 0.12-30.56-48.94h-22.03zm145.73-30.32c0-17.89-12.78-30.56-29.95-30.56-18.02 0-30.92 13.03-30.92 31.05 0 18.39 13.39 31.05 31.29 31.05 13.75 0 22.64-4.39 27.63-10.47l-11.68-12.91c-4.51 4.87-9.62 6.21-13.4 6.21-6.57 0-11.56-2.8-12.54-8.52h39.09c0.24-1.46 0.48-4.38 0.48-5.85zm-30.07-14c4.75 0 8.04 2.92 9.01 8.04h-18.51c0.98-5.12 4.63-8.04 9.5-8.04zm38.59 44.32h21.8v-89.61h-21.8zm52.97 1.22c16.92 0 25.2-8.04 25.2-19.72 0-11.69-6.7-15.59-20.21-19.85-5.97-1.95-7.43-3.04-7.43-4.26 0-1.71 1.95-2.44 3.77-2.44 3.78 0 8.77 2.2 12.54 6.21l10.11-14.48c-7.06-5-13.64-7.55-23.38-7.55-12.41 0-22.89 6.94-22.89 20.09 0 11.32 8.89 16.43 19 19.35 7.3 2.2 8.16 3.17 8.16 4.63 0 1.58-1.47 2.44-4.51 2.44-4.5 0-9.74-2.2-14.85-6.7l-9.86 13.39c6.81 6.09 15.09 8.89 24.35 8.89zm63.18 0c19.12 0 32.63-12.66 32.63-31.05 0-18.38-13.51-31.04-32.63-31.04-19.35 0-32.75 12.66-32.75 31.04 0 18.39 13.4 31.05 32.75 31.05zm0-19.12c-6.21 0-10.83-4.99-10.83-11.93 0-6.94 4.5-11.81 10.83-11.81 6.33 0 10.72 4.87 10.72 11.81 0 6.94-4.63 11.93-10.72 11.93zm40.79 17.9h21.79v-29.95c0-8.16 3.41-11.69 8.65-11.69 5.35 0 7.79 2.32 7.79 10.84v30.8h21.79v-36.04c0-19.35-9.13-24.83-21.18-24.83-6.46 0-12.42 2.43-16.8 7.55h-0.25v-6.34h-21.79zm143.05 0.61c15.22 0 26.18-6.94 33.73-16.31l-7.92-6.7c-6.08 7.67-14.61 13.03-25.81 13.03-18.26 0-32.02-12.91-32.02-33.6 0-19.85 12.3-34.22 31.9-34.22 9.74 0 18.63 4.14 25.81 13.03l7.92-6.57c-9.14-11.2-21.31-16.56-33.73-16.56-27.64 0-42.98 19.84-42.98 44.32 0 28.24 19.73 43.58 43.1 43.58zm53.21-70.73c4.01 0 7.18-3.17 7.18-7.07 0-3.89-3.17-7.06-7.18-7.06-4.02 0-7.19 3.17-7.19 7.06 0 3.9 3.17 7.07 7.19 7.07zm-4.99 70.12h9.86v-59.29h-9.86zm43.95 0.73c7.06 0 11.08-1.7 14.36-3.65l-2.55-8.64c-2.93 1.58-6.58 3.04-10.11 3.04-5.6 0-7.18-3.41-7.18-10.59v-31.66h19.6v-8.52h-19.6v-21.31l-9.86 1.1v20.21h-7.67v8.52h7.67v33.12c0 11.93 4.87 18.38 15.34 18.38zm33.48 23.38h10.22l33.61-83.4h-10.35l-17.9 45.05h-0.24l-19.24-45.05h-10.71l25.2 56.98zm126.13-23.5c15.22 0 26.18-6.94 33.73-16.31l-7.92-6.7c-6.08 7.67-14.61 13.03-25.81 13.03-18.26 0-32.02-12.91-32.02-33.61 0-19.84 12.3-34.21 31.9-34.21 9.74 0 18.63 4.14 25.81 13.03l7.92-6.58c-9.14-11.2-21.31-16.55-33.73-16.55-27.64 0-42.98 19.84-42.98 44.31 0 28.25 19.73 43.59 43.1 43.59zm72.08 0.12c17.53 0 30.56-12.29 30.56-30.31 0-18.02-13.03-30.44-30.56-30.44-18.38 0-30.68 13.39-30.68 30.44 0 17.04 12.3 30.31 30.68 30.31zm0-9.01c-12.3 0-20.58-9.49-20.58-21.3 0-11.81 8.16-21.43 20.58-21.43 11.44 0 20.45 8.76 20.45 21.43 0 12.66-9.13 21.3-20.45 21.3zm64.4 9.01c7.8 0 15.1-3.89 19.61-10.96h0.12v10.23h9.86v-59.29h-9.86v28.73c0 14.13-8.16 22.28-17.66 22.28-9.37 0-14.48-5.11-14.48-18.5v-32.51h-9.87v35.31c0 16.92 8.65 24.71 22.28 24.71zm45.66-0.73h9.86v-29.58c0-13.4 7.31-21.43 18.51-21.43 8.64 0 14.61 4.75 14.61 18.63v32.38h9.86v-35.18c0-16.93-8.52-24.84-21.31-24.84-9.13 0-16.92 4.26-21.55 11.44h-0.12v-10.71h-9.86zm94.11 0.73c11.57 0 19.48-4.38 24.47-10.35l-6.81-6.21c-3.66 4.51-9.87 7.55-16.93 7.55-12.05 0-20.21-8.64-20.21-21.31 0-12.54 8.16-21.42 20.33-21.42 7.07 0 12.91 3.16 16.68 7.55l6.7-5.97c-5.84-6.94-14.98-10.59-23.86-10.59-17.66 0-29.95 12.54-29.95 30.43 0 18.02 12.29 30.32 29.58 30.32zm41.52-70.86c4.02 0 7.18-3.16 7.18-7.06 0-3.9-3.16-7.06-7.18-7.06-4.02 0-7.19 3.16-7.19 7.06 0 3.9 3.17 7.06 7.19 7.06zm-4.99 70.13h9.86v-59.29h-9.86zm28 0h9.86v-89.61h-9.86zm-274.8-273.93c-15.54 8.04-40.73 20.61-53.36 27.83-56.59 32.33-32.13-22.69-32.13-22.69 9.89-23.79 4.84-10.65 21-47.02 18.45-41.48 19.29-49.58 19.68-60.55 0.4-10.97-2.68-19.16-8.94-24.06-4.71-3.68-10.53-4.83-18.79-5.15-13.4-0.51-37.88 5.28-58.54 15.84q-31 15.84-61.31 35.81-30.31 19.97-57.86 35.81c-18.37 10.56-32.1 16.77-44.96 16.77-6.43 0-12.58-0.46-14.96-8.5-2.56-8.63 6.8-22.94 12.23-31.99 7.01-11.69 18.69-30.37 24.96-40.33 4.13-6.54 8.14-14.57 5.61-25.57-2.52-10.93-10.9-17.82-19.71-20.69-8.81-2.87-16.9-3.84-34.8 1.05-17.91 4.89-40.4 15.74-57.86 24.1-17.47 8.35-93.5 54.43-114.43 70-20.93 15.57-20.9 20.75-17.28 20.93 4.87 0.24 59.09-26.81 71.9-32.91 20.33-9.68 33.96-16.98 68.63-31.32 33.36-13.8 42.18-2.78 16.43 33.57-16.55 23.36-39.77 50.9-53.85 68.28-14.09 17.37-46.51 56.11-53.26 64.99-6.76 8.89-18.33 20.86-18.33 35.55 0 15.62 12.46 24.88 25.44 23.43 10.94-1.23 19.21-6.58 28.24-11.72 9.03-5.13 79.69-52.73 98.63-66.8 14.43-10.72 39.46-29.24 49.82-35.86 10.36-6.62 41.23-25.08 53.73-30.94 12.49-5.87 24.83-11.7 38.57-11.71 13.73-0.01 26.77 9.61 29.07 19.25 2.3 9.64 0.16 16.39-1.61 24.87-1.78 8.48-9.2 32-11.98 41.78-8.65 30.34-11.67 42.44-6.55 53.23 14.08 29.65 56.8-1.29 71.67-10.77 14.87-9.48 47.43-33.35 54.57-38.39 7.14-5.04 51.35-37.02 69.54-54.2 21.97-20.75 5.39-14.66-19.21-1.92z"/>
	</g>
</svg>