<svg version="1.2" xmlns="http://www.w3.org/2000/svg" viewBox="0 0 1178 1200" width="1178" height="1200">
	<style>
		.s0 { fill: #fefefe } 
	</style>
	<g id="Layer 1">
		<g id="&lt;Group&gt;">
			<g id="&lt;Group&gt;">
				<path id="&lt;Compound Path&gt;" class="s0" d="m150.1 628.54q0-110.19 0-220.38 0-2.52 1.29-4.62 1.3-2.11 3.51-3.33 2.21-1.23 4.73-1.22c16.22 0.04 24.32 0.06 40.54 0.1q2.65 0 5.31 1.27 2.66 1.26 4.63 3.37 1.98 2.1 2.66 4.42c16.63 53.23 33 106.54 49.39 159.84q-1.72-79.38-3.4-158.76-0.01-4.24 2.52-7.14 2.52-2.9 6.33-2.89c10.36 0.01 15.53 0.01 25.89 0.02q2.11 0 4.16 1.25 2.04 1.25 3.37 3.04 1.33 1.78 1.33 3.29 0 119.16 0 238.33 0 5.6-2.49 8.8-2.49 3.21-6.37 3.05c-14.03-0.59-21.05-1.01-35.09-2.17q-3.74-0.31-7.35-3.32-3.61-3.01-4.91-6.71c-18.33-54.4-36.6-108.82-55.18-163.13q1.53 77.81 3.07 155.62 0 4-2.59 6.29-2.59 2.28-6.61 1.54c-10.08-1.86-15.12-2.89-25.21-5.15q-2.52-0.56-4.73-2.31-2.22-1.74-3.51-4.16-1.3-2.42-1.29-4.94z"/>
				<path id="&lt;Compound Path&gt;" class="s0" d="m328.52 620.05q0-105.85 0-211.7 0-3.84 2.26-6.3 2.26-2.46 5.88-2.46 44.47 0.02 88.94 0.01 3.44 0 5.79 2.51 2.35 2.5 2.35 6.28c0 9.32 0 13.95 0 23.18q0 2.48-1.08 4.56-1.09 2.07-2.96 3.28-1.87 1.21-4.1 1.22c-24.36 0.12-36.54 0.14-60.9 0.09 0 20.5 0 30.67 0 50.86 18.45 0.03 27.68-0.02 46.13-0.21q3.38-0.04 5.46 2.2 2.08 2.23 2.08 5.89c0 9.15 0 13.7 0 22.77q0 3.62-2.08 5.89-2.08 2.27-5.46 2.34c-18.45 0.34-27.68 0.44-46.13 0.47 0 23.72 0 35.48 0 58.76 24.36-0.24 36.54-0.61 60.9-1.63q3.44-0.14 5.79 2.08 2.35 2.21 2.35 5.7c0 8.62 0 12.91 0 21.44q0 2.29-1.08 4.27-1.09 1.98-2.96 3.2-1.87 1.22-4.1 1.35c-29.71 1.44-59.19 2.33-88.94 2.6q-3.56-0.01-5.85-2.51-2.29-2.5-2.29-6.14z"/>
				<path id="&lt;Compound Path&gt;" class="s0" d="m458.1 616.68q0.01-104.74 0-209.47 0-2.4 1.06-4.4 1.05-2 2.8-3.14 1.75-1.13 3.68-1.13c8.92-0.01 13.39-0.02 22.31-0.03q1.93-0.01 3.68 1.09 1.75 1.1 2.8 3.04 1.06 1.94 1.06 4.27 0 87.74 0 175.49c18.09-1.83 27.13-2.8 45.22-4.77q3.38-0.37 5.31 1.37 1.93 1.74 1.93 5.14c0 9.13 0 13.69 0 22.79q0 3.1-1.96 5.42-1.96 2.33-5.28 2.72c-30.15 3.56-45.22 5.32-75.37 8.29q-1.93 0.19-3.59-0.66-1.66-0.85-2.65-2.45-1-1.6-1-3.57z"/>
				<path id="&lt;Compound Path&gt;" class="s0" d="m572.61 597.37c-5.02-4.75-8.95-10.8-11.76-17.64q-4.22-10.27-4.22-21.77c0-0.12 0-0.18 0-0.3q0-2.8 1.32-5.3 1.33-2.51 3.56-4.13 2.23-1.62 4.77-1.87c8.56-0.86 12.84-1.29 21.4-2.15q0.18 0.17 0.48 0.2 0.3 0.03 0.73-0.02c0.24-0.02 0.36-0.03 0.6-0.06q2.71 0.87 4.52 3.11 1.81 2.25 1.81 4.94c0 1.2 0 1.8 0 2.99q0 4.62 1.87 8.49 1.87 3.87 5.22 6.4c2.23 1.69 4.81 2.76 7.69 3.25q3.12 0.54 6.33 0.2c0.36-0.04 0.54-0.06 0.9-0.1q1.03-0.12 1.78-0.26 0.75-0.14 0.93-0.34c0.12-0.01 0.18-0.02 0.31-0.03q5.48-1.02 9.97-4.29 4.5-3.27 7.06-7.97 2.56-4.69 2.56-9.93c0.24-5.92 0.36-8.87 0.61-14.76q-0.25-7.66-3.38-12.51c-2.09-3.23-5.37-5.55-9.29-7.19-4.73-1.99-12.26-3.06-22.31-2.51-2.29-0.04-3.44-0.06-5.73-0.11-11.61 0.17-20.44-2.4-26.47-7.78q-9.04-8.07-11.79-19.65-2.74-11.57-2.74-25.76c0.12-4.28 0.18-6.42 0.3-10.71 0.12-1.71 0.18-2.57 0.3-4.29q1.57-10.2 2.87-15.61 1.29-5.41 3.71-9.79 2.41-4.38 6.99-8.74 7.18-7.29 17.13-10.9c6.63-2.41 13.88-3.5 21.76-3.35 3.74 0 5.61 0 9.35 0 7.03-0.01 13.77 1.29 20.2 3.82q9.65 3.8 17.19 10.72 7.41 6.78 11.39 16.09c2.65 6.2 3.98 12.73 3.98 19.66 0 0.11 0 0.17 0 0.28q0 2.36-1.18 4.32-1.17 1.97-3.16 3.19-1.99 1.23-4.4 1.35c-8.32 0.4-12.48 0.61-20.81 1.03q-3.37-0.06-5.6-2.26-2.23-2.19-2.24-5.43c0-0.81 0-1.21 0-2.02q0.01-4.15-1.86-7.74-1.87-3.59-5.22-6.19c-2.23-1.74-4.84-2.97-7.69-3.77-1.79-0.5-3.82-0.76-6.03-0.69-0.96 0.03-1.44 0.04-2.41 0.07q-0.3 0.3-1.51 0.33-5.54 0.75-9.77 3.49-4.22 2.74-6.57 6.98-2.35 4.26-2.35 9.45c0 6.91 0 10.37 0 17.29q0.6 5.87 3.98 8.99 3.38 3.12 9.77 4.21c4.26 0.72 10.01 0.91 17 0.84 17.68-0.19 31.21 4.43 39.95 13.12 8.74 8.69 13.12 21.78 13.12 39.61q-0.01 7.58-0.76 14.66-0.75 7.09-3.28 15.09-2.54 8.01-7.42 15.47-7.96 12.21-19.87 20-11.91 7.79-25.35 9.39c-3.74 0.44-5.61 0.66-9.35 1.11q-11.04 1.32-20.98-1.81c-6.64-2.09-12.78-5.55-17.91-10.41z"/>
				<path id="&lt;Compound Path&gt;" fill-rule="evenodd" class="s0" d="m709.42 569.35q-7.84-12.68-7.84-27.74 0-46.4 0-92.81 0-9.66 3.5-18.46 3.49-8.8 10.04-15.76c4.36-4.64 9.5-8.42 15.4-11.43q12.85-6.61 28.95-6.6c3.98 0 5.97 0 9.95 0q10.31 0 19.86 3.01 9.56 3 17.34 8.64 7.78 5.65 12.84 13.37 7.54 11.44 7.54 26.17 0.15 45.41 0.3 90.82 0 9.56-3.52 18.53-3.53 8.97-10.04 16.45-6.52 7.47-15.38 12.73-13.15 7.89-28.64 8.44c-3.98 0.14-5.97 0.21-9.95 0.38q-10.31 0.43-19.87-2.54-9.56-2.99-17.4-9.03c-5.22-4.02-9.58-8.64-13.08-14.17zm55.17-8.41q6.33-0.17 11.76-3.49 5.43-3.31 8.59-8.69 3.17-5.38 3.17-11.44 0-45.04 0-90.08 0-5.84-3.17-10.57-3.16-4.73-8.62-7.43-5.46-2.71-12.03-2.7c-0.36 0-0.54 0-0.9 0q-6.58 0-12.09 2.72-5.52 2.72-8.78 7.48-3.25 4.75-3.25 10.62 0 45.46 0 90.92 0 6.15 3.25 11.46 3.26 5.29 8.81 8.35 5.54 3.06 12.06 2.88c0.48-0.02 0.72-0.02 1.2-0.03z"/>
				<path id="&lt;Compound Path&gt;" class="s0" d="m853.47 609.44q0-101.28 0-202.57 0-2.24 1.3-4.12 1.29-1.88 3.5-2.96 2.22-1.09 4.74-1.09c16.21 0.01 24.32 0.02 40.53 0.04q2.66 0.01 5.31 1.1 2.66 1.1 4.64 2.92 1.97 1.82 2.66 3.83c17 47.41 33.43 94.99 49.38 142.76q-1.69-70.86-3.4-141.72 0-3.71 2.52-6.23 2.52-2.54 6.34-2.53c10.35 0.02 15.53 0.04 25.88 0.07q2.12 0 4.16 1.12 2.04 1.13 3.37 2.74 1.33 1.61 1.33 2.97 0 110.17 0 220.35 0 5.31-2.49 7.86-2.49 2.54-6.37 1.66c-14.03-3.16-21.05-4.53-35.08-6.92q-3.75-0.64-7.36-3.69-3.61-3.04-4.9-6.51c-17.86-49.32-36.23-98.4-55.18-147.31q1.55 70.35 3.06 140.7 0 3.69-2.59 6.01-2.59 2.32-6.6 2.03c-10.09-0.72-15.13-1-25.21-1.43q-2.52-0.11-4.74-1.35-2.21-1.25-3.5-3.29-1.3-2.05-1.3-4.44z"/>
				<g id="&lt;Group&gt;">
					<path id="&lt;Compound Path&gt;" class="s0" d="m327.76 740.14q0-42.18 0-84.37 0-1.01 0.5-1.85 0.5-0.85 1.3-1.32 0.81-0.48 1.7-0.47c6.14 0.02 9.21 0.01 15.36-0.05q0.99-0.01 1.94 0.36 0.94 0.36 1.56 1 0.62 0.64 0.67 1.4c4.9 16.44 7.36 24.13 12.26 39.22 4.9-15.32 7.35-23.27 12.25-39.83q0.3-1.18 1.55-2.03 1.26-0.85 2.77-0.91c6.14-0.23 9.21-0.36 15.35-0.65q1.51-0.08 2.5 0.9 1 0.97 1 2.52 0 42.66 0 85.33 0 1.44-1 2.42-0.99 0.97-2.5 1.02c-3.88 0.11-5.82 0.16-9.7 0.25q-1.51 0.04-2.44-0.87-0.93-0.91-0.93-2.36c0-21.18 0-31.88 0-53.55-4.09 12.91-6.14 19.28-10.23 31.9q-0.11 0.36-0.46 0.76-0.35 0.39-1.02 0.94c-0.27 0.16-0.41 0.24-0.68 0.4q-1.26 0.54-2.15 0.55c-3.45 0.07-5.17 0.1-8.62 0.14q-0.89 0.01-2.16-0.48c-0.27-0.15-0.4-0.23-0.67-0.38q-0.94-0.7-1.35-1.64c-4.09-12.43-6.14-18.67-10.23-31.22 0 21.4 0 32 0 52.99q0 0.81-0.47 1.57-0.48 0.75-1.26 1.23-0.78 0.48-1.64 0.47c-3.88-0.01-5.82-0.03-9.7-0.07q-0.86-0.01-1.67-0.5-0.81-0.49-1.32-1.25-0.51-0.76-0.51-1.57z"/>
					<path id="&lt;Compound Path&gt;" fill-rule="evenodd" class="s0" d="m412.99 730.6q-3.5-5.77-3.5-12.55c0-17.12 0-25.76 0-43.22q0-4.65 1.56-9.13 1.56-4.46 4.49-8.16 2.92-3.69 6.88-6.28 5.74-3.8 12.93-4.31c1.78-0.13 2.67-0.23 4.44-0.39q4.61-0.4 8.88 0.75 4.27 1.16 7.74 3.71 3.48 2.54 5.74 6.22 3.37 5.45 3.37 12.76c0.05 17.7 0.08 26.48 0.13 43.89q0 4.51-1.57 8.87-1.58 4.35-4.49 8.08-2.91 3.73-6.87 6.43-5.87 4.05-12.79 4.63c-1.78 0.15-2.67 0.23-4.45 0.38q-4.6 0.22-8.87-1.13-4.27-1.35-7.77-4.06-3.51-2.7-5.85-6.49zm24.65-3.89q2.83-0.24 5.25-1.93 2.42-1.7 3.84-4.31 1.41-2.61 1.41-5.45c0-17.23 0-25.92 0-43.49q0-2.9-1.41-5.15-1.42-2.25-3.85-3.39-2.44-1.15-5.38-0.9c-0.16 0.01-0.24 0.02-0.4 0.03q-2.94 0.25-5.4 1.81-2.47 1.56-3.92 4.06-1.46 2.49-1.46 5.38c0 17.5 0 26.16 0 43.3q0 2.83 1.46 5.22 1.45 2.39 3.93 3.74c1.65 0.89 3.45 1.29 5.39 1.13 0.22-0.02 0.32-0.03 0.54-0.05z"/>
					<path id="&lt;Compound Path&gt;" class="s0" d="m481.11 724.59q-3.63-5.55-3.63-12.55c-0.06-24.36-0.08-36.61-0.14-61.64q0-2.38 0.69-3.79 0.69-1.4 1.99-2.07 1.31-0.67 3.38-0.89c1.94-0.21 2.91-0.31 4.85-0.53q2.05-0.22 2.76-0.26 0.72-0.03 1.11 0.1c0.26 0.09 0.59 0.32 0.98 0.58 0.43 0.3 0.81 0.84 1.03 1.63q0.32 1.19 0.32 3.25c0.05 24.74 0.08 36.86 0.13 61.03q0 2.91 1.44 5.26 1.45 2.34 3.9 3.55 2.45 1.2 5.3 0.89c0.87-0.09 1.3-0.14 2.16-0.23q2.91-0.32 5.35-2.06 2.43-1.74 3.86-4.4 1.43-2.66 1.43-5.61c0.05-24.28 0.08-36.44 0.13-61.15q0-2.36 0.68-3.74 0.67-1.38 1.95-2.03 1.28-0.65 3.3-0.89c2.1-0.25 3.15-0.38 5.25-0.63q2.35-0.28 3.65 0.07 1.31 0.34 1.93 1.56 0.62 1.23 0.62 3.72c-0.06 24.95-0.08 37.27-0.14 61.89q0 4.67-1.64 9.14-1.64 4.46-4.65 8.27-3 3.8-7.04 6.57-6.06 4.24-13.2 4.99c-1.94 0.21-2.91 0.31-4.85 0.51q-4.79 0.5-9.14-0.62-4.35-1.12-7.88-3.66-3.53-2.55-5.88-6.26z"/>
					<path id="&lt;Compound Path&gt;" class="s0" d="m546.41 726.54q0-43.41 0-86.81 0-1 0.51-1.9 0.52-0.9 1.39-1.5 0.88-0.59 1.87-0.71c6.41-0.79 9.62-1.19 16.03-1.98q1.05-0.13 2.1 0.21 1.05 0.35 1.83 1.03 0.78 0.69 1.05 1.51c7.82 22.43 11.72 33.58 19.53 56.08-0.54-23.27-0.8-34.89-1.34-58.07q0-1.53 0.99-2.7 1-1.18 2.51-1.36c4.09-0.51 6.14-0.76 10.24-1.26q0.83-0.11 1.64 0.24 0.81 0.34 1.33 0.91 0.53 0.56 0.53 1.1 0 43.72 0 87.43 0 2.12-0.99 3.48-0.98 1.36-2.51 1.53c-5.55 0.62-8.33 0.94-13.88 1.56q-1.48 0.17-2.91-0.69-1.43-0.85-1.94-2.14c-8.72-22.92-13.09-34.26-21.82-57.01 0.49 23.67 0.73 35.48 1.22 59.09q0 1.52-1.03 2.68-1.02 1.17-2.61 1.34c-3.99 0.45-5.98 0.68-9.97 1.12q-0.99 0.11-1.87-0.27-0.87-0.39-1.39-1.15-0.51-0.78-0.51-1.76z"/>
					<path id="&lt;Compound Path&gt;" class="s0" d="m627.6 717.51c0-30.54 0-45.83 0-75.85-4.36 0.52-6.54 0.79-10.91 1.32q-1.75 0.22-2.83-0.52-1.07-0.74-1.07-2.22c0-3.6 0-5.4 0-8.99q0-1.48 1.07-2.48 1.08-1 2.83-1.22c15.73-1.9 23.6-2.84 39.33-4.61q1.05-0.12 1.95 0.22 0.91 0.34 1.43 1.02 0.53 0.67 0.53 1.53c0 3.58 0 5.37 0 8.96q0 0.86-0.53 1.65-0.52 0.8-1.43 1.34-0.9 0.55-1.95 0.67c-4.58 0.52-6.87 0.78-11.45 1.31q0 38.02 0 76.03 0 1.56-1 2.74-0.99 1.18-2.5 1.34c-3.99 0.42-5.98 0.64-9.97 1.07q-0.86 0.1-1.68-0.32-0.82-0.42-1.32-1.21-0.5-0.79-0.5-1.78z"/>
					<path id="&lt;Compound Path&gt;" fill-rule="evenodd" class="s0" d="m662.81 714.66q0-0.41 0.05-0.64 8.81-45.02 17.78-90.02 0.3-1.52 1.71-2.66 1.42-1.13 3.14-1.31c6.79-0.69 10.18-1.02 16.97-1.67q1.13-0.1 2.21 0.25 1.07 0.35 1.83 1.07 0.75 0.72 0.94 1.69 8.97 43.48 17.65 87.01 0.05 0.22 0.05 0.67 0 1.31-0.94 2.18-0.95 0.87-2.48 0.94c-4.58 0.22-6.87 0.54-11.45 0.93q-3.1 0.27-3.5-2.75c-1.62-8.92-2.43-13.36-4.04-22.19-6.95 0.65-10.43 0.99-17.38 1.68-1.61 9.13-2.42 13.7-4.04 22.88q-0.32 1.67-1.07 2.45-0.76 0.78-2.43 0.94c-4.58 0.45-6.87 0.68-11.45 1.14q-1.53 0.16-2.54-0.57-1.01-0.72-1.01-2.02zm37.63-42.34c-2.32-13.51-3.48-20.27-5.79-33.53q-0.11-0.34-0.26-0.48-0.15-0.15-0.42-0.13-0.27 0.03-0.41 0.21-0.15 0.17-0.26 0.53c-2.26 13.72-3.39 20.71-5.66 34.66 5.12-0.52 7.68-0.77 12.8-1.26z"/>
					<path id="&lt;Compound Path&gt;" class="s0" d="m735.43 707.91q0-44.31 0-88.63 0-1.51 1-2.61 0.99-1.1 2.5-1.19c3.99-0.25 5.98-0.37 9.97-0.59q0.86-0.05 1.64 0.38 0.78 0.43 1.25 1.22 0.47 0.79 0.47 1.76 0 44.5 0 89 0 1.05-0.47 1.94-0.47 0.89-1.25 1.42-0.78 0.54-1.64 0.57c-3.99 0.14-5.98 0.21-9.97 0.37q-1.51 0.06-2.5-0.99-1-1.05-1-2.65z"/>
					<path id="&lt;Compound Path&gt;" class="s0" d="m767.86 706.35q0-44.64 0-89.27 0-0.97 0.51-1.8 0.51-0.83 1.39-1.34 0.88-0.51 1.87-0.55c6.41-0.26 9.62-0.37 16.03-0.55q1.05-0.03 2.1 0.4 1.05 0.42 1.83 1.15 0.78 0.73 1.05 1.56c7.82 22.28 11.72 34.68 19.53 59.24-0.54-24.47-0.8-37.05-1.34-59.3q0-1.47 0.99-2.49 1-1.01 2.51-1.02c4.09-0.02 6.14-0.02 10.23-0.01q0.84 0.01 1.65 0.44 0.81 0.42 1.33 1.03 0.53 0.61 0.53 1.12 0 44.97 0 89.94 0 2.24-0.99 3.54-0.98 1.31-2.51 1.29c-5.55-0.06-8.33-0.08-13.88-0.09q-1.48 0-2.91-1.07-1.43-1.07-1.94-2.5c-8.72-25.28-13.09-37.75-21.82-62.1 0.49 24.53 0.73 36.93 1.22 62.01q0 1.62-1.03 2.75-1.02 1.13-2.61 1.15c-3.99 0.07-5.98 0.11-9.97 0.21q-0.99 0.02-1.87-0.47-0.88-0.49-1.39-1.35-0.51-0.87-0.51-1.92z"/>
				</g>
				<g id="&lt;Group&gt;">
					<path id="&lt;Compound Path&gt;" fill-rule="evenodd" class="s0" d="m150.1 898.67q0-91.94 0-183.88 0-3.47 1.76-6.02 1.77-2.55 4.8-3.6 3.03-1.06 6.68-0.35c24 4.65 36.01 6.46 60.01 9.26 7.38 1.27 13.54 3.45 18.48 6.61 4.94 3.17 9.37 7.68 12.71 13.42 3.38 5.8 5 12.55 5 19.72 0.12 8.4 0.18 12.59 0.3 20.95q-0.01 6.53-1.89 13.57-1.88 7.05-6.73 12.82-4.86 5.79-13.16 7.43 13.24 3.06 20.27 13.41 7.04 10.35 7.68 26.8c0.12 7.34 0.18 11 0.3 18.3q0.11 10.51-3.33 18.21-3.44 7.72-9 12.45c-3.71 3.15-7.77 5.45-12.09 6.93-6.14 2.09-11.06 3.23-14.71 3.22-27.07-0.03-40.6-0.06-67.67-0.11q-2.47-0.01-4.65-1.24-2.18-1.24-3.47-3.33-1.29-2.1-1.29-4.57zm57.66-105.95q4.3 0.38 7.91-1.89 3.62-2.26 5.71-6.79 2.09-4.53 1.97-10.62c-0.11-5.36-0.17-8.05-0.29-13.42q0-10.05-4.59-15.59-4.59-5.53-13.65-6.66c-6.47-0.81-9.71-1.24-16.18-2.17q-1.77-0.25-3.09 1.16-1.33 1.41-1.33 3.36c0.24 19.27 0.36 28.89 0.59 48.09q0 2.57 3.53 2.94c7.77 0.69 11.65 1.01 19.42 1.59zm4.12 89.74q9.06-1.24 13.47-6.57 4.42-5.31 4.18-14.96c0.12-5.59 0.18-8.39 0.3-13.99q0.11-8.4-2.48-13.53-2.58-5.13-7.53-7.54-4.94-2.4-12.35-2.91c-7.06-0.49-10.59-0.75-17.66-1.31q-2.23-0.17-3.32 1.33-1.09 1.51-1.09 3.73c0.12 20.6 0.18 30.89 0.3 51.41q0 1.93 1.14 2.84 1.15 0.91 3.56 0.97c8.59 0.23 12.89 0.33 21.48 0.53z"/>
					<path id="&lt;Compound Path&gt;" class="s0" d="m288.98 903.16q0-66.33 0-132.65 0-2.38 1.66-3.94 1.67-1.57 4.19-1.47c6.66 0.25 9.99 0.35 16.64 0.52q1.44 0.04 2.75 0.83 1.3 0.78 2.09 2.09 0.79 1.31 0.79 2.85 0 65.92 0 131.83 0 1.48-0.79 2.71-0.79 1.23-2.09 1.95-1.31 0.71-2.75 0.71c-6.65 0-9.98 0-16.64 0q-2.52 0-4.19-1.57-1.66-1.57-1.66-3.86z"/>
					<path id="&lt;Compound Path&gt;" class="s0" d="m343.14 903.86q0.01-66.05 0-132.1 0-1.38 0.77-2.63 0.76-1.25 2.11-2.01 1.35-0.77 2.97-0.77c6.57 0.02 9.86 0.01 16.42-0.04q1.44-0.01 2.68 0.78 1.24 0.79 1.98 2.04 0.74 1.25 0.74 2.59c0 15.42 0 23.06 0 38.23 11.16-15.77 16.74-23.76 27.89-40.14q1.4-1.68 3.33-2.97 1.94-1.3 3.65-1.22c6.66-0.26 9.99-0.41 16.64-0.72q2.07 0.02 3.78 0.94 1.71 0.92 2.68 2.38 0.97 1.46 0.97 3.04 0 2.13-0.9 3.01c-15.75 23.31-23.62 34.52-39.37 56.53q24.71 34.24 49.94 68.08 1.12 2.3 1.12 3.57 0 1.71-0.85 3.16-0.86 1.45-2.46 2.26-1.59 0.81-3.66 0.73c-7.56 0-11.34 0.01-18.9 0.01q-1.88 0-3.5-0.93-1.62-0.92-2.79-2.81c-15.03-20.65-22.54-31.1-37.57-52.29 0 20.77 0 31.03 0 51.3q0 1.18-0.74 2.27-0.74 1.08-1.98 1.77-1.24 0.68-2.68 0.69c-6.56-0.01-9.85-0.01-16.42-0.01q-1.62 0-2.97-0.67-1.35-0.67-2.11-1.78-0.77-1.1-0.77-2.29z"/>
					<path id="&lt;Compound Path&gt;" class="s0" d="m454.44 902.36q0-67.16 0-134.33 0-2.45 1.69-4.16 1.69-1.72 4.39-1.95c26.54-2.31 39.81-3.62 66.35-6.3q2.57-0.26 4.32 1.2 1.75 1.45 1.76 3.93c0 6.09 0 9.14 0 15.22q-0.01 1.63-0.81 3.07-0.81 1.44-2.21 2.36-1.39 0.92-3.06 1.07c-18.17 1.63-27.26 2.43-45.43 3.93 0 13.17 0 19.71 0 32.72 13.76-0.92 20.64-1.4 34.41-2.38q2.52-0.18 4.07 1.21 1.55 1.38 1.55 3.82c0 6.08 0 9.12 0 15.18q0 2.43-1.55 4.01-1.55 1.57-4.07 1.71c-13.77 0.75-20.65 1.12-34.42 1.83 0 15.33 0 22.94 0 38.05 18.18-0.43 27.27-0.66 45.44-1.12q2.57-0.06 4.32 1.49 1.75 1.56 1.75 3.99c0 5.97 0 8.95 0 14.91q0 1.6-0.8 2.94-0.82 1.34-2.21 2.12-1.4 0.78-3.06 0.78c-26.54 0.05-39.81 0.07-66.36 0.11q-2.65 0.01-4.36-1.56-1.71-1.56-1.71-3.85z"/>
					<path id="&lt;Compound Path&gt;" class="s0" d="m591.56 887.28c-3.75-6.63-5.62-13.96-5.62-22.08 0-29.96 0-44.93 0-74.84q0-7.72 2.5-15.04 2.49-7.33 7.15-13.57 4.66-6.24 11.04-10.76 9.27-6.64 20.7-7.82c2.88-0.3 4.32-0.44 7.2-0.73q7.55-0.77 14.46 1.18 6.9 1.96 12.48 6.34 5.58 4.38 9.27 10.84 5.4 9.69 5.4 22.11c0 0.09 0 0.14 0 0.23q0.09 1.84-0.77 3.6-0.85 1.77-2.36 2.92-1.51 1.15-3.17 1.27c-6.12 0.46-9.18 0.69-15.29 1.16q-1.76 0.14-3.31-0.77-1.55-0.91-2.5-2.51-0.94-1.61-0.94-3.42c0-0.28 0-0.42 0-0.7q0-5.18-2.21-9.05-2.2-3.88-6.09-5.82-3.9-1.94-8.8-1.48c-0.36 0.03-0.54 0.05-0.9 0.08q-4.59 0.42-8.61 3.18-4.03 2.76-6.41 7.07-2.39 4.31-2.3 9.19c0 29.95 0 44.99 0 75.2q0 4.93 2.43 9.25 2.43 4.33 6.46 6.86 4.02 2.54 8.43 2.44c0.36-0.01 0.54-0.01 0.9-0.02q4.73-0.11 8.66-2.82 3.94-2.72 6.19-7.25 2.25-4.52 2.25-9.79 0-1.94 0.92-3.61 0.92-1.67 2.47-2.68 1.55-1.01 3.36-1.09c6.11-0.25 9.17-0.37 15.29-0.62q1.8-0.07 3.28 0.83 1.49 0.91 2.37 2.51 0.87 1.61 0.87 3.64c0 0.48 0 0.73 0 1.21q0 8.51-2.47 16.35-2.48 7.84-7.09 14.22-4.61 6.38-10.91 10.6c-6.5 4.36-13.55 6.5-21.14 6.5-2.88 0-4.32 0-7.2 0q-7.56-0.01-14.44-2.76-6.88-2.75-12.42-7.78-5.53-5.02-9.13-11.77z"/>
					<path id="&lt;Compound Path&gt;" class="s0" d="m694.09 901.9q0-78.82 0-157.64 0-1.69 0.78-3.16 0.79-1.48 2.1-2.39 1.3-0.91 2.74-1.03c6.66-0.57 9.99-0.85 16.65-1.38q1.44-0.12 2.74 0.58 1.31 0.69 2.09 2.08 0.79 1.38 0.79 3.08 0 67.44 0 134.87c13.5-0.05 20.24-0.07 33.74-0.09q2.52 0 3.96 1.6 1.44 1.61 1.44 4.42c0 7.54 0 11.32 0 18.9q0 2.58-1.46 4.33-1.47 1.74-3.94 1.74c-22.49 0.01-33.74 0.01-56.23 0.03q-1.44 0.01-2.68-0.81-1.24-0.82-1.98-2.18-0.74-1.36-0.74-2.95z"/>
					<path id="&lt;Compound Path&gt;" class="s0" d="m780.64 883.6q-6.07-11.32-6.07-24.54-0.11-56.43-0.23-112.86 0-4.23 1.15-6.59 1.15-2.37 3.33-3.33 2.18-0.97 5.64-1c3.24-0.04 4.86-0.05 8.1-0.07q3.42-0.02 4.61 0.05 1.19 0.07 1.85 0.38c0.43 0.21 0.98 0.67 1.64 1.22 0.72 0.62 1.35 1.64 1.71 3.08q0.54 2.17 0.54 5.84 0.11 55.92 0.23 111.84-0.01 5.49 2.4 10.22 2.41 4.73 6.5 7.53 4.09 2.8 8.87 2.82c1.43 0.01 2.15 0.01 3.59 0.02q4.86 0.02 8.93-2.72 4.07-2.74 6.46-7.4 2.38-4.65 2.38-10.16 0.11-55.83 0.23-111.66 0-4.21 1.12-6.49 1.13-2.29 3.27-3.13 2.13-0.83 5.51-0.73c3.5 0.12 5.26 0.18 8.77 0.31q3.91 0.15 6.09 1.13 2.19 0.98 3.22 3.34 1.04 2.36 1.04 6.79-0.12 56.17-0.23 112.34 0 8.62-2.74 16.53-2.75 7.91-7.76 14.37-5.02 6.46-11.77 10.85-10.12 6.74-22.04 6.75c-3.24 0-4.86 0-8.1 0q-8.01 0-15.27-3.01-7.27-3.01-13.16-8.6-5.89-5.58-9.81-13.12z"/>
					<path id="&lt;Compound Path&gt;" fill-rule="evenodd" class="s0" d="m889.69 897.62q0-99.01 0-198.01 0-3.67 1.76-6.63 1.77-2.96 4.8-4.5 3.03-1.54 6.68-1.24c24.01 1.99 36.01 3.35 60.02 7.05 7.37 1.58 13.53 4.31 18.47 8.08 4.95 3.76 9.36 9 12.71 15.49 3.39 6.56 5 13.94 5 21.64 0.12 9.02 0.18 13.52 0.3 22.54q0 7.04-1.88 14.51-1.89 7.48-6.74 13.49-4.86 6.02-13.15 7.55c8.82 2.53 15.58 7.77 20.27 15.54 4.68 7.78 7.24 17.61 7.68 29.62 0.11 8.01 0.17 12.02 0.29 20.03 0.08 7.69-1.03 14.32-3.32 19.96q-3.45 8.45-9.01 13.69c-3.7 3.48-7.77 6.04-12.09 7.68-6.13 2.34-11.06 3.61-14.71 3.6-27.06-0.04-40.6-0.06-67.66-0.09q-2.48 0-4.66-1.35-2.17-1.36-3.47-3.65-1.29-2.29-1.29-5zm57.66-117.85q4.3 0.37 7.92-2.1 3.61-2.47 5.71-7.4 2.08-4.93 1.97-11.58c-0.12-5.86-0.18-8.79-0.3-14.64q0-10.95-4.59-17.02c-3.06-4.06-7.61-6.48-13.65-7.2-6.47-0.76-9.71-1.11-16.18-1.77q-1.76-0.17-3.09 1.43-1.32 1.6-1.32 3.71c0.23 20.83 0.35 31.27 0.58 52.22q0.01 2.81 3.54 3.07c7.76 0.45 11.65 0.71 19.41 1.28zm4.12 99.39q9.06-1.4 13.48-7.32 4.41-5.91 4.17-16.64c0.12-6.22 0.18-9.32 0.3-15.53q0.12-9.3-2.47-15-2.59-5.71-7.53-8.4-4.95-2.7-12.36-3.22c-7.06-0.48-10.59-0.7-17.65-1.12q-2.24-0.13-3.33 1.56-1.09 1.69-1.09 4.14c0.12 22.67 0.18 34.04 0.3 56.86q0 2.15 1.15 3.15 1.14 1 3.55 1.05c8.6 0.17 12.89 0.26 21.48 0.47z"/>
				</g>
			</g>
			<path id="&lt;Path&gt;" class="s0" d="m358.92 356.93l-73 2.56 208.18-187.99 61.41 61.17 125.24-190.62 189.33 310.26-69.82-1.69-122.39-213.29-114.24 173.87-71.64-71.36z"/>
			<path id="&lt;Path&gt;" class="s0" d="m809.45 941.38c-37.51 93.15-129.73 156.52-231.45 156.52-101.97 0-193.93-63.3-231.44-156.52h-61.5c40.1 126.59 159.58 214.46 292.94 214.46 133.05 0 252.88-87.99 292.94-214.46z"/>
			<g id="&lt;Group&gt;">
				<g id="&lt;Group&gt;">
					<path id="&lt;Compound Path&gt;" class="s0" d="m554.32 1002.68c0-10.52 0-15.78 0-26.31 5.29-1.02 7.94-1.77 13.23-3.36 0 2.48 0 3.71 0 6.19-2.44 0.73-3.66 1.08-6.11 1.72 0 1.54 0 2.3 0 3.84 2.2-0.58 3.29-0.89 5.48-1.54 0 2.38 0 3.57 0 5.95-2.19 0.65-3.28 0.96-5.48 1.53 0 1.61 0 2.42 0 4.02 2.45-0.64 3.67-0.99 6.12-1.72 0 2.53 0 3.79 0 6.32-5.3 1.59-7.94 2.33-13.24 3.36z"/>
					<path id="&lt;Compound Path&gt;" class="s0" d="m569.89 997.96c0-3.31 0-4.96 0-8.26q2.1 2.2 4.54 1.41 0.92-0.29 1.5-0.97 0.58-0.67 0.58-1.41 0-1.05-1.26-1.64c-0.46-0.22-0.69-0.32-1.16-0.53q-1.16-0.5-1.98-1.1-0.82-0.6-1.33-1.35-0.51-0.75-0.75-1.65-0.24-0.89-0.24-1.97 0-1.84 0.85-4.12 0.43-1.07 0.99-2.02 0.57-0.95 1.3-1.78 2.01-2.35 4.87-3.28 2.54-0.83 5.12-0.32c0 3.22 0 4.83 0 8.04q-0.87-1.06-1.98-1.48-1.11-0.41-2.19-0.06-0.82 0.27-1.35 0.91-0.54 0.64-0.54 1.29 0 1.06 1.45 1.62c0.45 0.19 0.67 0.28 1.12 0.47q2.26 0.89 3.23 2.28 0.98 1.38 0.99 3.67 0 3.88-2.37 7.17-2.38 3.29-6.01 4.47-2.51 0.82-5.38 0.61z"/>
					<path id="&lt;Compound Path&gt;" class="s0" d="m595.84 990.63c-2.85 0.72-4.27 1.12-7.12 1.98 0-8.01 0-12.01 0-20.01-1.57 0.47-2.36 0.71-3.93 1.21 0-2.52 0-3.78 0-6.3 6.06-1.91 9.08-2.84 15.13-4.13 0 2.52 0 3.78 0 6.3-1.63 0.35-2.45 0.54-4.08 0.95 0 8 0 12 0 20z"/>
					<path id="&lt;Compound Path&gt;" class="s0" d="m550.75 1033.83c-2.84 0.43-4.27 0.59-7.12 0.72 0-8.05 0-12.07 0-20.12-1.14 0.06-1.71 0.07-2.85 0.07 0-2.47 0-3.71 0-6.18 3.99 0 5.99-0.19 9.97-0.8 0 10.53 0 15.79 0 26.31z"/>
					<path id="&lt;Compound Path&gt;" fill-rule="evenodd" class="s0" d="m559.1 1032.17c1.69-3.4 2.53-5.12 4.22-8.58q0.24-0.49 0.57-1.1 0.33-0.61 0.74-1.34-1.41 1.15-2.51 1.44c-1.81 0.48-3.37 0.04-4.61-1.29-1.25-1.36-1.88-3.25-1.88-5.58q0-4.19 2.55-7.46 2.52-3.23 6.62-4.39c2.59-0.73 4.67-0.51 6.25 0.74q2.38 1.88 2.37 6.15 0.01 4.58-4.26 14c-0.97 2.14-1.45 3.21-2.41 5.33-3.06 0.91-4.59 1.34-7.65 2.08zm3.38-18.3q0 3.5 2.05 2.93 1.95-0.56 1.95-4.09 0-3.66-1.97-3.1-2.03 0.57-2.03 4.26z"/>
					<path id="&lt;Compound Path&gt;" fill-rule="evenodd" class="s0" d="m590.39 1008.95c2.72 0.39 4.08 2.11 4.08 5.07q0 3.43-2.56 6.4-2.56 2.96-6.43 4.17-3.77 1.19-6.37-0.26-2.61-1.46-2.62-4.79 0-4.43 4.49-7.67-3.96-0.06-3.96-4.22 0-3.29 2.36-6.2 2.37-2.93 5.99-4.07c2.48-0.78 4.54-0.66 6.15 0.27q2.46 1.43 2.47 4.59 0 2.04-0.85 3.63-0.85 1.59-2.75 3.08zm-3.18 6.38q0.01-2.66-1.74-2.12-0.37 0.12-0.69 0.42-0.31 0.31-0.54 0.74-0.23 0.43-0.36 0.97-0.13 0.54-0.13 1.14 0 1.17 0.49 1.73 0.48 0.55 1.27 0.3 0.37-0.11 0.69-0.41 0.32-0.29 0.54-0.71 0.22-0.42 0.35-0.94 0.12-0.52 0.12-1.12zm-0.22-10.5q0-1.04-0.41-1.54-0.41-0.5-1.09-0.29-0.66 0.21-1.06 0.93-0.39 0.72-0.39 1.71 0 2.4 1.48 1.93 1.47-0.46 1.47-2.74z"/>
					<path id="&lt;Compound Path&gt;" fill-rule="evenodd" class="s0" d="m600.89 1020.01c1.69-3.33 2.53-4.98 4.22-8.23q0.24-0.46 0.57-1.03 0.33-0.57 0.74-1.24-1.41 0.95-2.51 1.13c-1.81 0.31-3.37-0.19-4.61-1.54q-1.88-2.05-1.88-5.55c0-2.8 0.85-5.32 2.55-7.47 1.68-2.13 3.89-3.45 6.62-3.82 2.59-0.34 4.67 0.39 6.25 2.07 1.59 1.69 2.38 4.01 2.38 6.86 0 3.04-1.43 7.21-4.27 12.81-0.97 1.91-1.45 2.87-2.41 4.81-3.06 0.33-4.59 0.58-7.65 1.2zm3.38-18.05q0 3.48 2.05 3.19 1.95-0.26 1.95-3.77 0-3.68-1.97-3.42-2.03 0.29-2.03 4z"/>
				</g>
			</g>
		</g>
	</g>
</svg>