<svg width="154" height="154" viewBox="0 0 154 154" fill="none" xmlns="http://www.w3.org/2000/svg">
<path d="M74.1724 37.1339C80.5788 37.1339 85.7827 31.9494 85.7827 25.5669C85.7827 19.1845 80.5788 14 74.1724 14C67.766 14 62.5621 19.1845 62.5621 25.5669C62.5621 31.9494 67.766 37.1339 74.1724 37.1339ZM56.2178 67.683L60.9034 63.0149V77.329C60.9034 83.1124 63.4328 88.6274 67.8489 92.3867L82.6521 105.028C83.8753 106.081 84.6839 107.527 84.912 109.117L87.5243 127.315C88.0426 130.929 91.4013 133.449 95.0295 132.933C98.6578 132.417 101.187 129.07 100.669 125.456L98.0565 107.258C97.3723 102.487 94.9673 98.1495 91.2976 95.0099L84.1449 88.8959V65.1011L84.9327 66.0719C88.7061 70.7813 94.4283 73.5078 100.482 73.5078H107.366C111.035 73.5078 114 70.5541 114 66.8981C114 63.2421 111.035 60.2884 107.366 60.2884H100.482C98.4712 60.2884 96.5638 59.3796 95.2991 57.8098L91.5879 53.183C86.8194 47.2343 79.5836 43.7642 71.9333 43.7642C65.2573 43.7642 58.8509 46.4081 54.1446 51.1175L46.8259 58.3262C43.094 62.0441 41 67.084 41 72.3511V80.0968C41 83.7528 43.9648 86.7065 47.6345 86.7065C51.3042 86.7065 54.269 83.7528 54.269 80.0968V72.3511C54.269 70.5954 54.9739 68.9223 56.2178 67.683ZM58.7887 104.738C58.4777 105.813 57.8972 106.804 57.1093 107.589L42.9489 121.696C40.3573 124.278 40.3573 128.471 42.9489 131.053C45.5405 133.635 49.7492 133.635 52.3408 131.053L66.5013 116.946C68.8855 114.57 70.6271 111.617 71.5601 108.374L72.0162 106.804L62.4791 98.6658C61.9608 98.2114 61.4425 97.757 60.9449 97.2613L58.7887 104.738Z" fill="white"/>
  <path
    d="M77 5
       A72 72 0 1 1 76.999 5
       Z"
    fill="none"
    stroke="white"
    stroke-width="10"
  />
<line x1="30.5355" y1="23.4645" x2="131.536" y2="124.464" stroke="white" stroke-width="10"/>
</svg>
