<svg width="73" height="119" viewBox="0 0 73 119" fill="none" xmlns="http://www.w3.org/2000/svg">
<path d="M33.1724 23.1339C39.5788 23.1339 44.7827 17.9494 44.7827 11.5669C44.7827 5.18447 39.5788 0 33.1724 0C26.766 0 21.5621 5.18447 21.5621 11.5669C21.5621 17.9494 26.766 23.1339 33.1724 23.1339ZM15.2178 53.683L19.9034 49.0149V63.329C19.9034 69.1124 22.4328 74.6274 26.8489 78.3867L41.6521 91.0277C42.8753 92.0811 43.6839 93.5269 43.912 95.1174L46.5243 113.315C47.0426 116.929 50.4013 119.449 54.0295 118.933C57.6578 118.417 60.1872 115.07 59.6688 111.456L57.0565 93.2584C56.3723 88.4871 53.9673 84.1495 50.2976 81.0099L43.1449 74.8959V51.1011L43.9327 52.0719C47.7061 56.7813 53.4283 59.5078 59.4823 59.5078H66.3655C70.0352 59.5078 73 56.5541 73 52.8981C73 49.2421 70.0352 46.2884 66.3655 46.2884H59.4823C57.4712 46.2884 55.5638 45.3796 54.2991 43.8098L50.5879 39.183C45.8194 33.2343 38.5836 29.7642 30.9333 29.7642C24.2573 29.7642 17.8509 32.4081 13.1446 37.1175L5.8259 44.3262C2.09401 48.0441 0 53.084 0 58.3511V66.0968C0 69.7528 2.96478 72.7065 6.63448 72.7065C10.3042 72.7065 13.269 69.7528 13.269 66.0968V58.3511C13.269 56.5954 13.9739 54.9223 15.2178 53.683ZM17.7887 90.7385C17.4777 91.8126 16.8972 92.804 16.1093 93.5889L1.94888 107.696C-0.642716 110.278 -0.642716 114.471 1.94888 117.053C4.54047 119.635 8.74922 119.635 11.3408 117.053L25.5013 102.946C27.8855 100.57 29.6271 97.6167 30.5601 94.3738L31.0162 92.804L21.4791 84.6658C20.9608 84.2114 20.4425 83.757 19.9449 83.2613L17.7887 90.7385Z" fill="white"/>
</svg>
